<?xml version="1.0" standalone="no"?>
<!DOCTYPE svg PUBLIC "-//W3C//DTD SVG 1.1//EN" "http://www.w3.org/Graphics/SVG/1.1/DTD/svg11.dtd" >
<svg xmlns="http://www.w3.org/2000/svg">
<metadata></metadata>
<defs>
<font id="ferrovialregular" horiz-adv-x="1017" >
<font-face units-per-em="2048" ascent="1536" descent="-512" />
<missing-glyph horiz-adv-x="389" />
<glyph unicode="&#xfb01;" d="M41 868v41q0 22 8.5 31.5t28.5 9.5h110v99q0 196 79.5 299.5t256.5 103.5q56 0 111.5 -12.5t95.5 -30t71.5 -37t47.5 -34.5t16 -21q0 -23 -21 -52.5t-38 -29.5q-4 0 -45 23t-103.5 46t-119.5 23q-104 0 -155.5 -61.5t-51.5 -202.5v-113h524q22 0 30.5 -8.5t8.5 -30.5 v-874q0 -20 -8.5 -28.5t-30.5 -8.5h-65q-24 0 -32.5 8.5t-8.5 28.5v790h-418v-790q0 -37 -39 -37h-68q-21 0 -29 8.5t-8 28.5v790h-110q-20 0 -28.5 9t-8.5 32z" />
<glyph unicode="&#xfb02;" horiz-adv-x="1146" d="M41 868v41q0 22 8.5 31.5t28.5 9.5h110v60q0 106 16 183t53 137.5t103.5 91t163.5 30.5q138 0 246 -43q97 43 111 43q11 0 14.5 -6.5t3.5 -26.5v-1067q0 -137 32.5 -194.5t119.5 -57.5q9 0 29 1t24 1q29 0 29 -28l4 -56q0 -20 -22 -28t-83 -8q-71 0 -121.5 19t-80 50 t-46.5 80.5t-22.5 99t-5.5 117.5v944q-140 37 -217 37q-104 0 -155.5 -62.5t-51.5 -203.5v-113h243q20 0 28.5 -9t8.5 -32v-41q0 -23 -9 -32t-28 -9h-243v-790q0 -37 -39 -37h-68q-21 0 -29 8.5t-8 28.5v790h-110q-20 0 -28.5 9t-8.5 32z" />
<glyph unicode="&#xfb03;" horiz-adv-x="1599" d="M41 868v41q0 22 8.5 31.5t28.5 9.5h110v76q0 117 10.5 190.5t41.5 130t88.5 81t148.5 24.5q62 0 104 -9t46 -24q4 -12 0 -28q-4 -25 -5.5 -34t-5.5 -20t-9.5 -13.5t-14.5 -2.5q-1 0 -35.5 5t-67.5 5q-97 0 -127 -60.5t-30 -205.5v-115h395v60q0 106 16 183t53 137.5 t104.5 91t164.5 30.5q56 0 111.5 -12.5t95.5 -30t71.5 -37t47.5 -34.5t16 -21q0 -23 -21 -52.5t-38 -29.5q-4 0 -46 23t-104.5 46t-118.5 23q-106 0 -156.5 -61.5t-50.5 -202.5v-113h523q23 0 32 -8.5t9 -30.5v-874q0 -19 -9 -28t-32 -9h-64q-24 0 -32.5 8.5t-8.5 28.5v790 h-418v-790q0 -19 -8.5 -28t-29.5 -9h-68q-22 0 -30.5 8.5t-8.5 28.5v790h-395v-790q0 -37 -39 -37h-68q-21 0 -29 8.5t-8 28.5v790h-110q-20 0 -28.5 9t-8.5 32z" />
<glyph unicode="&#xfb04;" horiz-adv-x="1685" d="M41 868v41q0 22 8.5 31.5t28.5 9.5h110v76q0 243 63.5 334.5t227.5 91.5q52 0 98 -8t50 -25q4 -12 0 -28q-5 -44 -11 -57t-24 -13q-2 0 -17.5 2.5t-39.5 5t-46 2.5q-97 0 -127 -60.5t-30 -205.5v-115h395v60q0 106 16 183t53.5 137.5t104.5 91t164 30.5q138 0 246 -43 q18 15 44.5 25.5t42.5 14t21 3.5q13 0 17 -7t4 -26v-1067q0 -138 31 -195t118 -57q9 0 29 1t24 1q29 0 29 -28l4 -56q0 -21 -21.5 -28.5t-82.5 -7.5q-71 0 -122 19t-80.5 50t-46.5 80.5t-22.5 99t-5.5 117.5v944q-145 37 -215 37q-105 0 -156 -62t-51 -204v-113h242 q22 0 30.5 -9t8.5 -32v-41q0 -23 -9 -32t-30 -9h-242v-790q0 -19 -8.5 -28t-29.5 -9h-68q-22 0 -30.5 8.5t-8.5 28.5v790h-395v-790q0 -37 -39 -37h-68q-21 0 -29 8.5t-8 28.5v790h-110q-20 0 -28.5 9t-8.5 32z" />
<glyph horiz-adv-x="0" />
<glyph horiz-adv-x="682" />
<glyph unicode=" "  horiz-adv-x="389" />
<glyph unicode="&#x09;" horiz-adv-x="389" />
<glyph unicode="&#xa0;" horiz-adv-x="389" />
<glyph unicode="!" horiz-adv-x="516" d="M133 106q0 52 36.5 88.5t88.5 36.5q51 0 88 -36.5t37 -88.5t-37 -88t-88 -36q-53 0 -89 36t-36 88zM184 745v652q0 20 8.5 28.5t30.5 8.5h68q23 0 32 -9t9 -28v-652l-19 -313q-2 -18 -8.5 -26.5t-23.5 -8.5h-45q-33 0 -33 35z" />
<glyph unicode="&#x22;" horiz-adv-x="563" d="M82 1393q0 22 8.5 31.5t32.5 9.5h67q24 0 32.5 -9.5t8.5 -31.5l-28 -467q-2 -21 -8 -28t-23 -7h-33q-15 0 -20.5 7.5t-7.5 27.5zM332 1393q0 22 8.5 31.5t32.5 9.5h69q22 0 30.5 -10t8.5 -31l-28 -467q-2 -21 -7 -28t-22 -7h-33q-17 0 -23 7t-8 28z" />
<glyph unicode="#" horiz-adv-x="1511" d="M143 500v47q0 21 8 29t29 8h215l66 288h-199q-21 0 -29 8t-8 29v47q0 20 7.5 27.5t29.5 7.5h223l86 385q7 29 19.5 43.5t38.5 14.5h51q22 0 31.5 -7t9.5 -24q0 -11 -4 -27l-86 -385h348l86 385q7 29 19 43.5t38 14.5h52q22 0 31 -7t9 -24q0 -11 -4 -27l-86 -385h205 q24 0 31.5 -6.5t7.5 -28.5v-47q0 -22 -8 -29.5t-31 -7.5h-229l-66 -288h213q23 0 31 -7.5t8 -29.5v-47q0 -20 -8 -27.5t-31 -7.5h-237l-90 -408q-6 -31 -18.5 -44t-39.5 -13h-51q-41 0 -41 31q0 10 4 26l90 408h-348l-90 -408q-6 -31 -18 -44t-39 -13h-52q-41 0 -41 31 q0 6 5 26l90 408h-191q-22 0 -29.5 7.5t-7.5 27.5zM541 584h348l65 288h-348z" />
<glyph unicode="$" horiz-adv-x="1077" d="M123 92q0 13 21.5 54.5t33.5 41.5q7 0 47.5 -20t106.5 -39.5t135 -19.5q91 0 158.5 21t104.5 57.5t54 78.5t17 90q0 81 -71.5 158.5t-266.5 192.5q-163 96 -243.5 191.5t-80.5 215.5q0 145 93.5 233.5t273.5 100.5v162q0 37 39 37h49q22 0 30.5 -8.5t8.5 -28.5v-162 q73 -5 134 -23.5t88.5 -35.5t27.5 -25q0 -10 -23 -52t-35 -42q-6 0 -40 14t-93.5 27.5t-126.5 13.5q-274 0 -274 -211q0 -78 67.5 -151t219.5 -166q62 -38 100.5 -63.5t88 -61.5t78.5 -67t56.5 -69.5t40 -81t12.5 -89.5q0 -157 -102 -255t-279 -120v-166q0 -19 -8.5 -28 t-29.5 -9h-50q-39 0 -39 37v160q-90 3 -169.5 27t-116.5 47.5t-37 33.5z" />
<glyph unicode="%" horiz-adv-x="1845" d="M102 1059q0 213 77.5 303t256.5 90q175 0 251.5 -90t76.5 -303q0 -215 -76.5 -306t-251.5 -91q-178 0 -256 91t-78 306zM236 1059q0 -164 43 -224.5t157 -60.5q111 0 153 61t42 224q0 160 -42 220t-153 60q-114 0 -157 -59.5t-43 -220.5zM547 29q0 4 8 28l582 1319 q14 32 24.5 45t30.5 13h74q34 0 34 -29q0 -3 -2 -8.5t-4.5 -12t-3.5 -8.5l-581 -1319q-14 -31 -25 -44t-31 -13h-71q-35 0 -35 29zM1081 379q0 213 77.5 303t256.5 90q175 0 251.5 -90t76.5 -303q0 -215 -76.5 -306t-251.5 -91q-178 0 -256 91t-78 306zM1214 379 q0 -164 43.5 -224.5t157.5 -60.5q111 0 153 61t42 224q0 160 -42 220t-153 60q-114 0 -157.5 -59.5t-43.5 -220.5z" />
<glyph unicode="&#x26;" horiz-adv-x="1312" d="M82 393q0 63 19 118t46 92t69.5 71.5t75 53.5t77.5 42q-9 11 -43 50t-53.5 65t-45.5 67t-38.5 83.5t-12.5 86.5q0 62 10 109.5t37 90.5t71.5 70.5t115 43.5t165.5 16q187 0 278 -77.5t91 -237.5q0 -58 -20.5 -110t-52.5 -90.5t-81 -75t-94 -61.5t-104 -52l379 -377 q65 133 65 372q0 31 9.5 45.5t33.5 14.5h62q25 0 33 -14t8 -46q0 -112 -27.5 -251.5t-81.5 -221.5l193 -190q26 -26 26 -43q0 -22 -6 -29.5t-26 -7.5h-97q-17 0 -35 18l-143 142q-39 -41 -74 -69t-87 -55t-121.5 -40.5t-157.5 -13.5q-128 0 -219.5 28.5t-144 84.5t-76 128.5 t-23.5 169.5zM236 395q0 -150 74 -218t235 -68q116 0 197 36t147 109l-428 426q-114 -52 -169.5 -115t-55.5 -170zM324 1126q0 -64 46 -132.5t132 -157.5q147 63 222 130t75 162q0 199 -221 199q-144 0 -199 -46.5t-55 -154.5z" />
<glyph unicode="'" horiz-adv-x="313" d="M82 1393q0 22 8.5 31.5t32.5 9.5h67q24 0 32.5 -9.5t8.5 -31.5l-28 -467q-2 -21 -8 -28t-23 -7h-33q-15 0 -20.5 7.5t-7.5 27.5z" />
<glyph unicode="(" horiz-adv-x="503" d="M102 707q0 205 64.5 404.5t183.5 371.5q11 14 23 14q4 0 16 -4l33 -12q10 -5 10 -17q0 -6 -16 -47q-162 -386 -162 -710q0 -327 162 -709q2 -7 6.5 -18.5t7 -18.5t2.5 -10q0 -11 -10 -17l-33 -12q-8 -4 -16 -4q-12 0 -23 14q-120 173 -184 372t-64 403z" />
<glyph unicode=")" horiz-adv-x="503" d="M72 -49q0 3 2.5 10t7 18.5t6.5 18.5q162 382 162 709q0 324 -162 710q-4 13 -8.5 24t-6 15.5t-1.5 7.5q0 12 12 17l31 12q12 4 18 4q13 0 21 -14q119 -171 183 -370.5t64 -405.5q0 -204 -64 -403t-183 -372q-8 -14 -21 -14q-10 0 -18 4l-31 12q-12 7 -12 17z" />
<glyph unicode="*" horiz-adv-x="880" d="M102 932q0 32 31 43l234 90l-234 90q-31 11 -31 43q0 18 11 35l20 35q17 28 41 28q15 0 35 -10l194 -156l-38 246q0 58 55 58h39q55 0 55 -58l-39 -248l197 158q12 10 35 10q24 0 41 -28l20 -35q10 -15 10 -35q0 -33 -30 -43l-236 -90l236 -90q30 -10 30 -43 q0 -18 -10 -33l-20 -35q-18 -30 -41 -30q-17 0 -35 12l-197 155l39 -245q0 -58 -55 -58h-39q-55 0 -55 58l38 245l-194 -155q-14 -12 -35 -12q-23 0 -41 30l-20 35q-11 16 -11 33z" />
<glyph unicode="+" horiz-adv-x="1013" d="M143 547v45q0 22 7.5 29.5t29.5 7.5h266v268q0 22 7.5 29.5t29.5 7.5h45q22 0 29.5 -7.5t7.5 -29.5v-268h269q22 0 29 -7.5t7 -29.5v-45q0 -22 -7 -29.5t-29 -7.5h-269v-268q0 -22 -7.5 -29.5t-29.5 -7.5h-45q-22 0 -29.5 7.5t-7.5 29.5v268h-266q-22 0 -29.5 7.5 t-7.5 29.5z" />
<glyph unicode="," horiz-adv-x="493" d="M61 -250q55 34 96.5 103t41.5 118q0 5 -12.5 16t-27.5 24t-27.5 38t-12.5 55q0 54 37 90.5t90 36.5t89 -36.5t36 -90.5q0 -103 -52.5 -198t-134.5 -160q-54 -43 -73 -43q-15 0 -29.5 16t-20.5 31z" />
<glyph unicode="-" horiz-adv-x="917" d="M143 547v45q0 22 7.5 29.5t29.5 7.5h557q22 0 29.5 -7.5t7.5 -29.5v-45q0 -22 -7.5 -29.5t-29.5 -7.5h-557q-22 0 -29.5 7.5t-7.5 29.5z" />
<glyph unicode="." horiz-adv-x="495" d="M123 106q0 52 36.5 88.5t88.5 36.5t88.5 -36.5t36.5 -88.5t-36 -88t-89 -36t-89 36t-36 88z" />
<glyph unicode="/" horiz-adv-x="794" d="M20 29q0 1 9 28l581 1319q14 32 24.5 45t29.5 13h75q35 0 35 -29q0 -5 -8 -29l-582 -1319q-14 -32 -24 -44.5t-29 -12.5h-76q-35 0 -35 29z" />
<glyph unicode="0" horiz-adv-x="1236" d="M102 717q0 213 25 350t86 225t158 124t247 36t247 -36t158.5 -124t86.5 -225t25 -350t-25 -350t-86.5 -225t-158.5 -124t-247 -36t-247 36t-158 124t-86 225t-25 350zM254 717q0 -126 6.5 -215.5t23 -161t42.5 -115t68 -72.5t95.5 -40t128.5 -11q91 0 151 18t103.5 57 t67 113t33.5 174.5t10 252.5t-10.5 252.5t-33.5 174t-66.5 113t-103.5 57t-151 17.5q-75 0 -128.5 -11t-95.5 -40t-68 -72.5t-42.5 -114.5t-23 -160.5t-6.5 -215.5z" />
<glyph unicode="1" horiz-adv-x="808" d="M92 1233v57q0 30 33 41q269 103 287 103h71q22 0 30.5 -8.5t8.5 -28.5v-1272h209q21 0 29 -8t8 -31v-47q0 -22 -8.5 -30.5t-28.5 -8.5h-590q-20 0 -28.5 8.5t-8.5 30.5v47q0 22 8.5 30.5t28.5 8.5h234v1145l-234 -70q-18 -6 -22 -6q-27 0 -27 39z" />
<glyph unicode="2" horiz-adv-x="974" d="M31 55v27q0 42 18 63l518 631q69 83 104.5 154t35.5 160q0 106 -71.5 171.5t-227.5 65.5q-73 0 -136 -18.5t-98 -37t-39 -18.5q-15 0 -37 37t-22 58q0 11 40 34.5t121.5 46.5t170.5 23q219 0 334.5 -92t115.5 -266q0 -102 -41.5 -193.5t-97.5 -157.5l-514 -618h672 q21 0 28.5 -8t7.5 -31v-47q0 -22 -8 -30.5t-28 -8.5h-807q-24 0 -31.5 11t-7.5 44z" />
<glyph unicode="3" horiz-adv-x="927" d="M31 59q0 15 17 57t28 42q8 0 44.5 -12t97 -24.5t126.5 -12.5q342 0 342 288q0 126 -85 201.5t-253 75.5h-117q-34 0 -34 39v45q0 23 7.5 32t26.5 9h103q161 0 246.5 74t85.5 206q0 248 -297 248q-72 0 -134 -17.5t-96.5 -35t-38.5 -17.5q-10 0 -35.5 40.5t-25.5 52.5 q0 10 38.5 33t120.5 46t175 23q121 0 210 -30t138 -83t71.5 -117t22.5 -141q0 -122 -58 -209t-155 -127q234 -96 234 -350q0 -211 -129.5 -312t-362.5 -101q-89 0 -165.5 15.5t-112 33t-35.5 28.5z" />
<glyph unicode="4" horiz-adv-x="1075" d="M20 442q0 13 9 27l424 936q5 11 8 16t9 9t15 4h97q26 0 26 -23q0 -2 -8 -22l-389 -846h504v368q0 21 9 30t30 9h67q23 0 32 -9t9 -30v-368h133q22 0 30.5 -9t8.5 -32v-45q0 -22 -8.5 -30.5t-30.5 -8.5h-133v-381q0 -19 -9 -28t-32 -9h-67q-39 0 -39 37v381h-658 q-37 0 -37 24z" />
<glyph unicode="5" horiz-adv-x="976" d="M61 59q0 16 15.5 57.5t27.5 41.5q9 0 46 -12t97.5 -24.5t127.5 -12.5q168 0 268 86t100 247q0 58 -11 104.5t-38.5 88.5t-72.5 70t-116 44.5t-165 16.5h-145q-37 0 -52.5 17.5t-15.5 60.5v553q0 20 9 28.5t32 8.5h629q20 0 28.5 -8.5t8.5 -30.5v-47q0 -23 -8 -31t-29 -8 h-523v-418h154q209 0 338 -115t129 -336q0 -70 -17.5 -135t-57.5 -124.5t-99 -103t-148 -69.5t-198 -26q-91 0 -167.5 15.5t-111.5 33t-35 28.5z" />
<glyph unicode="6" horiz-adv-x="1091" d="M72 444q0 337 493 961q26 29 45 29h95q28 0 28 -19q0 -16 -16 -37q-237 -298 -357 -516q8 5 24 11.5t70.5 18t116.5 11.5q199 0 324 -122.5t125 -334.5q0 -93 -28.5 -174.5t-84.5 -147t-150 -104t-216 -38.5q-235 0 -352 122.5t-117 339.5zM221 446q0 -156 79.5 -246.5 t240.5 -90.5q150 0 239.5 90.5t89.5 249.5q0 71 -18.5 128.5t-58.5 104t-110.5 72.5t-166.5 26q-56 0 -111 -14t-81 -28l-27 -13q-33 -62 -54.5 -138.5t-21.5 -140.5z" />
<glyph unicode="7" horiz-adv-x="909" d="M41 1350v45q0 22 8.5 30.5t28.5 8.5h776q10 0 17.5 -7t7.5 -16q0 -11 -11 -33l-555 -1349q-13 -29 -28 -29h-97q-26 0 -26 20q0 10 6 25l520 1264h-610q-21 0 -29 8.5t-8 32.5z" />
<glyph unicode="8" horiz-adv-x="1163" d="M82 401q0 139 68 225t180 119q-87 30 -144 110.5t-57 221.5q0 185 105.5 280t347.5 95q241 0 346.5 -93t105.5 -282q0 -72 -17.5 -130t-48 -95t-63 -59.5t-69.5 -36.5q125 -51 185 -134.5t60 -220.5q0 -219 -118.5 -319t-380.5 -100q-261 0 -380.5 100.5t-119.5 318.5z M233 403q0 -154 83 -224t266 -70q184 0 266 70t82 224q0 273 -393 273q-141 0 -222.5 -71.5t-81.5 -201.5zM274 1077q0 -133 74.5 -201t257.5 -77q128 3 205.5 77.5t77.5 200.5q0 136 -73.5 192t-233.5 56t-234 -56t-74 -192z" />
<glyph unicode="9" horiz-adv-x="1089" d="M72 985q0 98 30 182t88 148t150.5 100.5t208.5 36.5q241 0 355 -125t114 -344q0 -317 -494 -954q-23 -29 -43 -29h-98q-29 0 -29 23q0 8 17 32q11 14 51.5 66.5t59.5 78t57.5 78.5t65 92t61.5 93.5t65 107.5q-70 -36 -205 -36q-203 0 -328.5 124.5t-125.5 325.5zM221 983 q0 -68 19 -125t58.5 -103.5t110 -73t166.5 -26.5q56 0 111.5 13.5t83.5 27.5l27 13q71 142 71 272q0 161 -79 252.5t-242 91.5q-148 0 -237 -91.5t-89 -250.5z" />
<glyph unicode=":" horiz-adv-x="495" d="M123 106q0 52 36.5 88.5t88.5 36.5t88.5 -36.5t36.5 -88.5t-36 -88t-89 -36t-89 36t-36 88zM123 702q0 52 36.5 88.5t88.5 36.5t88.5 -36.5t36.5 -88.5t-36 -88t-89 -36t-89 36t-36 88z" />
<glyph unicode=";" horiz-adv-x="495" d="M61 -250q55 34 96.5 103t41.5 118q0 5 -12.5 16t-27.5 24t-27.5 38t-12.5 55q0 54 37 90.5t90 36.5t89 -36.5t36 -90.5q0 -103 -52.5 -198t-134.5 -160q-54 -43 -73 -43q-15 0 -29.5 16t-20.5 31zM123 702q0 52 36.5 88.5t88.5 36.5t88.5 -36.5t36.5 -88.5t-36 -88 t-89 -36t-89 36t-36 88z" />
<glyph unicode="&#x3c;" horiz-adv-x="899" d="M143 555v33q0 11 21 26l506 351q15 12 26 12q13 0 27 -21l20 -32q13 -17 13 -23q0 -14 -21 -29l-434 -301l434 -303q21 -15 21 -26q0 -8 -13 -25l-20 -31q-11 -20 -27 -20q-9 0 -26 10l-506 352q-21 12 -21 27z" />
<glyph unicode="=" horiz-adv-x="1071" d="M143 379v45q0 22 7.5 29.5t29.5 7.5h711q22 0 29.5 -7.5t7.5 -29.5v-45q0 -22 -7.5 -29.5t-29.5 -7.5h-711q-22 0 -29.5 7.5t-7.5 29.5zM143 719v45q0 22 7.5 29.5t29.5 7.5h711q22 0 29.5 -7.5t7.5 -29.5v-45q0 -22 -7.5 -29.5t-29.5 -7.5h-711q-22 0 -29.5 7.5 t-7.5 29.5z" />
<glyph unicode="&#x3e;" horiz-adv-x="899" d="M143 242q0 11 21 26l434 303l-434 301q-21 15 -21 29q0 10 13 23l20 32q14 21 27 21q11 0 26 -12l506 -351q21 -15 21 -26v-33q0 -15 -21 -27l-506 -352q-17 -10 -28 -10q-14 0 -25 20l-20 31q-13 13 -13 25z" />
<glyph unicode="?" horiz-adv-x="970" d="M92 1352q0 10 46 33t133 45t173 22q424 0 424 -324q0 -86 -31 -151.5t-92.5 -120t-169.5 -117.5q-37 -22 -51 -30.5t-38 -25t-31 -23t-20 -21.5t-15.5 -25t-7.5 -28.5t-5.5 -36.5t-0.5 -45v-55q0 -30 -7 -41t-28 -11h-74q-22 0 -29.5 11.5t-7.5 40.5v65q0 119 37 180.5 t158 128.5q159 89 209.5 150t50.5 155q0 199 -277 199q-64 0 -131 -17.5t-108.5 -35t-44.5 -17.5q-18 0 -40 40.5t-22 54.5zM209 106q0 52 36.5 88.5t88.5 36.5t88.5 -36.5t36.5 -88.5t-36 -88t-89 -36t-89 36t-36 88z" />
<glyph unicode="@" horiz-adv-x="1888" d="M143 408q0 142 31.5 269t98 235.5t162.5 187.5t232 123.5t300 44.5q184 0 334 -55.5t245.5 -151t147 -218t51.5 -259.5q0 -111 -24 -203.5t-64 -155.5t-94 -106.5t-113 -63.5t-121 -20q-41 0 -75.5 12.5t-54.5 29.5t-34 34.5t-19 30.5l-5 12q-4 -5 -12 -13t-35.5 -28.5 t-58 -36t-79 -28.5t-100.5 -13q-142 0 -230.5 102.5t-88.5 278.5q0 487 411 487q101 0 190.5 -32.5t139.5 -67.5l-35 -537q0 -51 27 -82.5t84 -31.5q48 0 92.5 25.5t82.5 75t60.5 134.5t22.5 193q0 119 -45 222.5t-126.5 180t-203.5 120.5t-268 44q-150 0 -270 -43 t-197 -113.5t-128.5 -168t-73 -200t-21.5 -214.5q0 -308 166.5 -472.5t447.5 -164.5q137 0 283 43q6 1 15 3.5t11 2.5q11 0 20 -23q0 -1 0.5 -2t0.5 -2l10 -45q6 -15 6 -29q0 -23 -113.5 -46t-232.5 -23q-349 0 -549.5 202t-200.5 556zM674 418q0 -131 60 -199.5t145 -68.5 q80 0 139 34.5t92 83.5l27 469q-9 6 -26 14.5t-68 22.5t-101 14q-147 0 -207.5 -92.5t-60.5 -277.5z" />
<glyph unicode="A" horiz-adv-x="1157" d="M20 20q0 2 5 17l438 1360q6 22 13.5 29.5t25.5 7.5h153q18 0 25.5 -7t15.5 -30l437 -1360q4 -12 4 -17q0 -20 -29 -20h-82q-19 0 -26 7t-15 30l-125 383h-565l-123 -383q-5 -15 -8 -21.5t-11 -11t-22 -4.5h-80q-31 0 -31 20zM336 545h485l-243 749z" />
<glyph unicode="B" horiz-adv-x="1161" d="M123 37v1360q0 37 39 37h485q95 0 167.5 -23t115.5 -59t70.5 -87.5t37 -101t9.5 -106.5q0 -199 -138 -305q181 -98 181 -353q0 -178 -101.5 -288.5t-292.5 -110.5h-534q-39 0 -39 37zM270 125h402q125 0 195.5 66t70.5 208q0 141 -67 211t-212 70h-389v-555zM270 805h357 q149 0 209.5 66.5t60.5 185.5t-61.5 185.5t-210.5 66.5h-355v-504z" />
<glyph unicode="C" horiz-adv-x="1071" d="M102 717q0 271 54 430t172.5 232t320.5 73q91 0 168 -19t111.5 -39t34.5 -30t-25 -55q-23 -39 -35 -39q-4 0 -35 14t-89.5 27.5t-129.5 13.5q-225 0 -309 -133.5t-84 -474.5t84 -474.5t309 -133.5q73 0 140 17.5t106 35.5t43 18q14 0 29 -26q22 -55 22 -68t-41 -37 t-124 -45.5t-175 -21.5q-202 0 -320.5 73t-172.5 232t-54 430z" />
<glyph unicode="D" horiz-adv-x="1222" d="M123 37v1360q0 37 39 37h397q205 0 325.5 -68t178 -224.5t57.5 -424.5t-57.5 -424.5t-178 -224.5t-325.5 -68h-397q-39 0 -39 37zM270 125h289q120 0 197.5 29.5t125.5 101.5t67.5 181.5t19.5 279.5t-19.5 279.5t-67.5 181.5t-125.5 101.5t-197.5 29.5h-289v-1184z" />
<glyph unicode="E" d="M123 37v1360q0 37 39 37h715q20 0 28 -8.5t8 -30.5v-47q0 -23 -7.5 -31t-28.5 -8h-607v-512h568q20 0 28 -8.5t8 -30.5v-47q0 -22 -8 -30.5t-28 -8.5h-568v-547h609q21 0 28.5 -8t7.5 -31v-47q0 -22 -8 -30.5t-28 -8.5h-717q-39 0 -39 37z" />
<glyph unicode="F" horiz-adv-x="974" d="M123 37v1360q0 37 39 37h696q19 0 27 -8.5t8 -30.5v-47q0 -23 -8 -31t-27 -8h-588v-512h549q19 0 27 -8.5t8 -30.5v-47q0 -22 -8 -30.5t-27 -8.5h-549v-635q0 -37 -39 -37h-69q-39 0 -39 37z" />
<glyph unicode="G" horiz-adv-x="1177" d="M102 717q0 271 54 430t172.5 232t320.5 73q82 0 154.5 -17t107.5 -35.5t35 -29.5q0 -14 -22 -53q-22 -43 -37 -43q-4 0 -33.5 13t-84.5 25.5t-120 12.5q-225 0 -309 -133.5t-84 -474.5t84 -474.5t309 -133.5q152 0 264 38v467q0 21 8 30t29 9h70q22 0 30.5 -9t8.5 -30 v-518q0 -30 -21 -39q-40 -24 -151.5 -49.5t-237.5 -25.5q-202 0 -320.5 73t-172.5 232t-54 430z" />
<glyph unicode="H" horiz-adv-x="1189" d="M123 37v1360q0 37 39 37h69q39 0 39 -37v-598h650v598q0 19 8.5 28t29.5 9h70q22 0 30.5 -8.5t8.5 -28.5v-1360q0 -20 -8.5 -28.5t-30.5 -8.5h-70q-21 0 -29.5 9t-8.5 28v637h-650v-637q0 -37 -39 -37h-69q-39 0 -39 37z" />
<glyph unicode="I" horiz-adv-x="393" d="M123 37v1360q0 37 39 37h69q39 0 39 -37v-1360q0 -37 -39 -37h-69q-22 0 -30.5 8.5t-8.5 28.5z" />
<glyph unicode="J" horiz-adv-x="897" d="M41 66q0 14 21 54t34 40q2 0 39 -13q114 -38 205 -38q63 0 108.5 12t83 41.5t60.5 81t35 130.5t12 189v746h-352q-21 0 -29 8.5t-8 32.5v45q0 22 8.5 30.5t28.5 8.5h461q21 0 28.5 -8.5t7.5 -28.5v-815q0 -122 -10.5 -210t-39.5 -165t-78.5 -124.5t-128 -74t-187.5 -26.5 q-85 0 -157.5 16t-107 35t-34.5 33z" />
<glyph unicode="K" horiz-adv-x="1038" d="M123 37v1360q0 37 39 37h69q39 0 39 -37v-631l486 639q18 29 41 29h96q12 0 19.5 -7t7.5 -16q0 -11 -11 -29l-503 -653l600 -678q12 -12 12 -26q0 -25 -27 -25h-100q-6 0 -10.5 1t-10 5t-7.5 5.5t-9 9t-8 8.5l-576 649v-641q0 -37 -39 -37h-69q-39 0 -39 37z" />
<glyph unicode="L" horiz-adv-x="952" d="M123 37v1360q0 37 39 37h69q39 0 39 -37v-1272h584q20 0 28.5 -8.5t8.5 -30.5v-47q0 -39 -37 -39h-692q-39 0 -39 37z" />
<glyph unicode="M" horiz-adv-x="1271" d="M123 37v1360q0 20 8.5 28.5t28.5 8.5h73q20 0 33 -19l371 -622l369 622q14 19 32 19h74q20 0 28.5 -8.5t8.5 -28.5v-1360q0 -37 -39 -37h-70q-39 0 -39 37v1100l-301 -488q-13 -26 -34 -26h-60q-21 0 -37 26l-299 488v-1100q0 -37 -39 -37h-69q-39 0 -39 37z" />
<glyph unicode="N" horiz-adv-x="1183" d="M123 37v1360q0 19 7.5 28t27.5 9h75q16 0 23 -6t18 -23l641 -1110v1102q0 20 8 28.5t29 8.5h70q39 0 39 -37v-1360q0 -37 -39 -37h-74q-17 0 -25 6t-16 23l-637 1097v-1089q0 -37 -39 -37h-69q-39 0 -39 37z" />
<glyph unicode="O" horiz-adv-x="1286" d="M102 717q0 399 123 567t418 168t418 -168t123 -567t-123 -567t-418 -168t-418 168t-123 567zM256 717q0 -131 10 -223t35 -169t69 -122t111 -69.5t162 -24.5t162 24.5t111 69.5t69 122t35 169t10 223t-10 223t-35 169t-69 122t-111 69.5t-162 24.5t-162 -24.5t-111 -69.5 t-69 -122t-35 -169t-10 -223z" />
<glyph unicode="P" horiz-adv-x="1134" d="M123 37v1360q0 37 39 37h504q93 0 165.5 -23t117 -61t73.5 -91t40 -108.5t11 -118.5t-11 -118t-40 -108t-73.5 -91t-117 -61t-165.5 -23h-396v-594q0 -37 -39 -37h-69q-39 0 -39 37zM270 756h375q151 0 215 71t64 205q0 135 -64 206t-215 71h-375v-553z" />
<glyph unicode="Q" horiz-adv-x="1288" d="M102 717q0 400 123.5 567.5t419.5 167.5q198 0 315.5 -73.5t171.5 -233t54 -428.5q0 -322 -79 -491t-259 -220l70 -254q4 -16 4 -18q0 -19 -31 -29l-53 -14q-8 -4 -21 -4q-17 0 -26 28l-74 271q-33 -4 -72 -4q-296 0 -419.5 167.5t-123.5 567.5zM256 717 q0 -133 10.5 -227t36.5 -169.5t71 -120.5t112 -68t161 -23q23 0 35 2l-57 208q-4 16 -4 27q0 18 24 25l62 16q8 2 20 2q16 0 25 -31l59 -221q128 45 174.5 184t46.5 396q0 130 -9.5 221t-34 168.5t-68 123t-111.5 70.5t-164 25q-97 0 -165 -25t-112 -70.5t-68.5 -123 t-34 -168.5t-9.5 -221z" />
<glyph unicode="R" horiz-adv-x="1167" d="M123 37v1360q0 37 39 37h504q93 0 165.5 -25t117 -65t73.5 -96.5t40 -113t11 -120.5q0 -57 -8.5 -107.5t-31 -101t-57 -89.5t-90 -68.5t-126.5 -41.5l327 -561q9 -18 9 -22q0 -23 -29 -23h-96q-21 0 -35 25l-332 577h-334v-565q0 -37 -39 -37h-69q-39 0 -39 37zM270 727 h373q151 0 215 75t64 214q0 293 -279 293h-373v-582z" />
<glyph unicode="S" horiz-adv-x="974" d="M72 92q0 13 21.5 54.5t33.5 41.5q7 0 47.5 -20t106.5 -39.5t135 -19.5q91 0 158.5 21t104.5 57.5t54 78.5t17 90q0 81 -71.5 158.5t-266.5 192.5q-163 96 -243.5 191.5t-80.5 215.5q0 158 109 248t321 90q89 0 166 -19t112 -39t35 -30t-22.5 -52t-34.5 -42q-6 0 -40 14 t-93.5 27.5t-126.5 13.5q-274 0 -274 -211q0 -78 67.5 -151t218.5 -166q63 -38 101 -63.5t87.5 -61.5t78.5 -67t57 -69.5t40.5 -81t12.5 -89.5q0 -181 -130.5 -282t-352.5 -101q-60 0 -117.5 10t-97.5 24.5t-71.5 30t-46.5 28t-15 17.5z" />
<glyph unicode="T" horiz-adv-x="1050" d="M31 1350v45q0 21 9 30t30 9h913q20 0 28.5 -8.5t8.5 -30.5v-47q0 -21 -8 -29t-29 -8h-383v-1274q0 -20 -8.5 -28.5t-30.5 -8.5h-69q-39 0 -39 37v1274h-383q-21 0 -30 8.5t-9 30.5z" />
<glyph unicode="U" horiz-adv-x="1212" d="M113 584v813q0 37 39 37h69q39 0 39 -37v-819q0 -109 9 -183t31.5 -131.5t62.5 -90t99 -48.5t144 -16q106 0 172 23.5t105.5 81.5t54 143t14.5 221v819q0 37 39 37h68q23 0 32 -9t9 -28v-813q0 -166 -23 -276t-80.5 -185.5t-152 -108t-238.5 -32.5t-238.5 32.5 t-151.5 108t-80 185t-23 276.5z" />
<glyph unicode="V" horiz-adv-x="1103" d="M20 1413q0 21 31 21h84q19 0 25.5 -7.5t13.5 -29.5l377 -1252l379 1252q5 15 8 21.5t11 11t22 4.5h82q30 0 30 -21q0 -4 -4 -16l-411 -1360q-7 -22 -13.5 -29.5t-25.5 -7.5h-154q-19 0 -27 7.5t-14 29.5l-409 1360q-5 15 -5 16z" />
<glyph unicode="W" horiz-adv-x="1730" d="M31 1417q0 17 26 17h93q13 0 19.5 -5.5t8 -11t4.5 -20.5l307 -1252l299 1252q5 21 11.5 29t23.5 8h86q14 0 21 -8.5t12 -28.5l299 -1252l307 1254q4 13 6.5 18.5t9.5 11t19 5.5h88q29 0 29 -17q0 -4 -4 -20l-340 -1360q-5 -21 -12.5 -29t-26.5 -8h-152q-19 0 -27.5 8.5 t-13.5 28.5l-260 1100l-258 -1100q-6 -22 -14 -29.5t-27 -7.5h-149q-20 0 -28 8t-13 29l-340 1360q-1 4 -2 9l-1.5 7.5t-0.5 3.5z" />
<glyph unicode="X" horiz-adv-x="1077" d="M20 25q0 11 7 20l432 713l-383 631q-6 12 -6 22q0 23 26 23h101q7 0 12.5 -3t8 -5t8 -10.5t7.5 -10.5l306 -516l307 516q16 29 35 29h102q27 0 27 -23q0 -10 -9 -22l-383 -631l433 -713q6 -8 6 -20q0 -10 -7.5 -17.5t-21.5 -7.5h-96q-19 0 -35 29l-358 598l-357 -598 q-19 -29 -37 -29h-94q-31 0 -31 25z" />
<glyph unicode="Y" horiz-adv-x="1028" d="M20 1411q0 10 8.5 16.5t20.5 6.5h98q14 0 21 -7.5t16 -25.5l330 -649l332 653q18 29 37 29h96q29 0 29 -23q0 -8 -7 -22l-413 -781v-571q0 -20 -8.5 -28.5t-30.5 -8.5h-70q-39 0 -39 37v571l-413 781q-7 14 -7 22z" />
<glyph unicode="Z" horiz-adv-x="1091" d="M51 25q0 11 10 24l756 1260h-686q-20 0 -28.5 8.5t-8.5 32.5v45q0 39 37 39h879q30 0 30 -23q0 -10 -10 -27l-760 -1259h719q20 0 28.5 -8.5t8.5 -30.5v-47q0 -39 -37 -39h-907q-14 0 -22.5 8t-8.5 17z" />
<glyph unicode="[" horiz-adv-x="618" d="M123 -408v1856q0 22 7.5 29.5t29.5 7.5h360q22 0 29.5 -7.5t7.5 -29.5v-45q0 -22 -7.5 -29.5t-29.5 -7.5h-252v-1690h252q22 0 29.5 -7t7.5 -29v-48q0 -20 -7.5 -27t-29.5 -7h-360q-22 0 -29.5 7t-7.5 27z" />
<glyph unicode="\" horiz-adv-x="794" d="M20 1405q0 29 35 29h76q19 0 29 -13t24 -45l582 -1319q8 -24 8 -28q0 -29 -35 -29h-75q-19 0 -29.5 13t-24.5 44l-581 1319q-9 27 -9 29z" />
<glyph unicode="]" horiz-adv-x="618" d="M61 -360q0 22 7.5 29t29.5 7h252v1690h-252q-22 0 -29.5 7.5t-7.5 29.5v45q0 22 7.5 29.5t29.5 7.5h361q23 0 30 -7.5t7 -29.5v-1856q0 -20 -7 -27t-30 -7h-361q-22 0 -29.5 7t-7.5 27v48z" />
<glyph unicode="_" horiz-adv-x="1060" d="M20 -166q0 20 7.5 27.5t29.5 7.5h947q22 0 29 -7.5t7 -27.5v-47q0 -21 -7.5 -29t-28.5 -8h-947q-22 0 -29.5 7.5t-7.5 29.5v47z" />
<glyph unicode="`" horiz-adv-x="624" d="M102 1343q0 15 13 31l35 45q14 21 34 21t39 -19l279 -247q20 -20 20 -31q0 -8 -8 -19l-16 -20q-12 -12 -19 -12q-9 0 -35 16l-313 197q-29 19 -29 38z" />
<glyph unicode="a" horiz-adv-x="1064" d="M92 471q0 268 110 383t324 115q90 0 174.5 -20t125.5 -38.5t69 -36.5v-661q0 -57 19 -86t67 -29q10 0 25 2t18 2q18 0 23 -30q1 -6 3 -20l3.5 -24.5t1.5 -13.5q0 -8 -10 -15t-35 -12t-62 -5q-127 0 -166 114q-10 -11 -30 -26t-57 -37t-93 -36.5t-117 -14.5 q-393 0 -393 489zM238 471q0 -191 67 -280t201 -89q52 0 99 15t76.5 36.5t46.5 37.5t22 26v580q-11 6 -31 14.5t-78 22.5t-113 14q-150 0 -220 -85t-70 -292z" />
<glyph unicode="b" d="M123 45v1341q0 19 7 28.5t28 15.5q83 22 90 22q12 0 15 -6t3 -27v-530q4 3 10.5 8.5t30.5 19.5t50.5 24.5t69 19t87.5 8.5q93 0 166 -27t129.5 -84t86.5 -154t30 -229q0 -141 -29 -238t-88.5 -152.5t-138 -79t-187.5 -23.5q-164 0 -360 63zM266 135q104 -33 219 -33 q71 0 121 15.5t91 55t61 114.5t20 188q0 106 -18.5 179t-56 115.5t-88 60.5t-119.5 18q-61 0 -118.5 -20t-84.5 -40l-27 -20v-633z" />
<glyph unicode="c" horiz-adv-x="825" d="M92 475q0 137 28 233t84 153t133.5 82.5t184.5 25.5q79 0 152.5 -23t73.5 -49q0 -12 -18.5 -48t-31.5 -36q-1 0 -58.5 17.5t-113.5 17.5q-75 0 -125.5 -16t-89 -57t-56 -115t-17.5 -185q0 -199 61.5 -286t220.5 -87q56 0 104 10.5t75 20.5t32 10q18 0 30.5 -30.5 t12.5 -53.5q0 -29 -78.5 -53t-163.5 -24q-230 0 -335 113.5t-105 379.5z" />
<glyph unicode="d" d="M92 475q0 132 31.5 229.5t90 154t133 83.5t167.5 27q67 0 126 -17t84 -34l26 -17v508q0 22 5.5 29.5t22.5 7.5l74 -8q24 -5 33.5 -13t9.5 -28v-1352q-207 -63 -365 -63q-108 0 -185 23t-136 78t-88 152.5t-29 239.5zM238 475q0 -92 14 -159t37.5 -108t62 -65t80 -32.5 t98.5 -8.5q50 0 105 8t85 16l30 9v643q-10 8 -27.5 19.5t-74.5 31t-116 19.5q-141 0 -217.5 -85.5t-76.5 -287.5z" />
<glyph unicode="e" horiz-adv-x="970" d="M92 475q0 241 103 367.5t305 126.5q194 0 286.5 -114.5t92.5 -346.5q0 -53 -14 -71.5t-54 -18.5h-571q0 -162 71 -239t248 -77q62 0 117 11t87 21.5t38 10.5q15 0 29 -33.5t14 -52.5q0 -30 -95 -53.5t-198 -23.5q-129 0 -217.5 29.5t-142 92.5t-76.5 152.5t-23 218.5z M240 532h497v25q0 133 -58 212t-179 79q-134 0 -197 -83t-63 -233z" />
<glyph unicode="f" horiz-adv-x="614" d="M41 868v41q0 22 8.5 31.5t28.5 9.5h110v76q0 117 10.5 190.5t41.5 130t88.5 81t148.5 24.5q58 0 104 -9.5t52 -23.5q2 -4 2 -12q-2 -12 -8 -47q0 -2 -1.5 -9.5t-2 -9.5t-2.5 -7.5t-4.5 -7t-6.5 -3.5t-10 -2q-3 0 -20.5 2.5t-43 5t-47.5 2.5q-97 0 -127 -60.5t-30 -205.5 v-115h215q20 0 28.5 -9t8.5 -32v-41q0 -23 -9 -32t-28 -9h-215v-790q0 -37 -39 -37h-68q-21 0 -29 8.5t-8 28.5v790h-110q-20 0 -28.5 9t-8.5 32z" />
<glyph unicode="g" horiz-adv-x="1021" d="M92 471q0 268 110 383t324 115q90 0 176 -20t127.5 -38.5t69.5 -36.5v-952q0 -190 -101 -279t-278 -89q-101 0 -209 24t-108 45q0 25 15 59.5t26 34.5q4 0 43 -11.5t99 -22.5t116 -11q125 0 188.5 60.5t63.5 193.5v137q-41 -31 -109 -56t-151 -25q-402 0 -402 489z M238 471q0 -193 66.5 -281t203.5 -88q48 0 90.5 11.5t70 27.5t47.5 33.5t29 29t9 13.5v580q-11 5 -31.5 13.5t-79.5 22t-115 13.5q-153 0 -221.5 -83t-68.5 -292z" />
<glyph unicode="h" horiz-adv-x="1030" d="M123 37v1349q0 19 7 28t28 16q83 22 90 22q12 0 15 -6t3 -27v-516q121 66 264 66q108 0 186 -26t120.5 -72t62 -99.5t19.5 -116.5v-618q0 -37 -39 -37h-66q-39 0 -39 37v581q0 230 -260 230q-126 0 -248 -72v-739q0 -20 -8.5 -28.5t-30.5 -8.5h-65q-22 0 -30.5 8.5 t-8.5 28.5z" />
<glyph unicode="i" horiz-adv-x="403" d="M102 1219q0 44 27.5 71t73.5 27q37 0 67.5 -29t30.5 -69q0 -41 -29.5 -70t-68.5 -29q-45 0 -73 28.5t-28 70.5zM129 37v874q0 21 8.5 30t30.5 9h65q22 0 31.5 -9t9.5 -30v-874q0 -19 -9 -28t-32 -9h-65q-22 0 -30.5 8.5t-8.5 28.5z" />
<glyph unicode="j" horiz-adv-x="520" d="M20 -406l3 48q1 12 3 18t8.5 11t18.5 5q5 0 22.5 -1t28.5 -1q89 0 119.5 55.5t30.5 196.5v901h-193q-21 0 -29.5 8.5t-8.5 30.5v43q0 23 8.5 32t29.5 9h299q39 0 39 -37v-991q0 -68 -5.5 -118t-22.5 -99.5t-46.5 -80.5t-80 -50.5t-119.5 -19.5q-60 0 -82.5 9t-22.5 31z M219 1219q0 44 28 71t72 27q38 0 68.5 -29t30.5 -69q0 -41 -29.5 -70t-69.5 -29q-44 0 -72 28.5t-28 70.5z" />
<glyph unicode="k" horiz-adv-x="851" d="M123 37v1349q0 19 7 28t28 16q83 22 90 22q12 0 15 -6t3 -27v-848l53 4l256 336q20 26 28.5 32.5t29.5 6.5h78q28 0 28 -26q0 -17 -12 -31l-291 -356l393 -482q13 -15 13 -30q0 -25 -29 -25h-88q-18 0 -27.5 7t-25.5 28l-357 450l-49 4v-452q0 -20 -8.5 -28.5t-30.5 -8.5 h-65q-39 0 -39 37z" />
<glyph unicode="l" horiz-adv-x="503" d="M113 348v1038q0 18 7 26t30 15q77 25 88 25q13 0 15.5 -5.5t2.5 -27.5v-1067q0 -137 32.5 -194.5t119.5 -57.5q9 0 28 1t23 1q28 0 30 -28q5 -54 5 -56q0 -21 -22.5 -28.5t-84.5 -7.5q-70 0 -120.5 19t-80 50t-46 80.5t-22 99t-5.5 117.5z" />
<glyph unicode="m" horiz-adv-x="1589" d="M123 37v819q72 48 172.5 80.5t206.5 32.5q196 0 291 -92q149 92 313 92q92 0 160.5 -19.5t108 -49t63.5 -73t31.5 -83.5t7.5 -89v-618q0 -20 -8.5 -28.5t-30.5 -8.5h-68q-39 0 -39 37v581q0 118 -54.5 174t-176.5 56q-128 0 -250 -74q20 -47 20 -131v-606q0 -37 -39 -37 h-65q-22 0 -30.5 8.5t-8.5 28.5v584q-2 112 -57 169.5t-176 57.5q-110 0 -228 -66v-745q0 -20 -8.5 -28.5t-30.5 -8.5h-65q-22 0 -30.5 8.5t-8.5 28.5z" />
<glyph unicode="n" horiz-adv-x="1030" d="M123 37v813q73 51 177 85t216 34q95 0 168 -19t116.5 -49.5t70.5 -73t37 -84t10 -88.5v-618q0 -37 -39 -37h-66q-39 0 -39 37v581q0 230 -266 230q-117 0 -242 -70v-741q0 -20 -8.5 -28.5t-30.5 -8.5h-65q-22 0 -30.5 8.5t-8.5 28.5z" />
<glyph unicode="o" horiz-adv-x="1036" d="M92 475q0 262 104.5 378t321.5 116t321.5 -116t104.5 -378t-104.5 -377.5t-321.5 -115.5t-321.5 115.5t-104.5 377.5zM238 475q0 -211 65 -292t215 -81q99 0 158 32.5t90 115t31 225.5t-31 225.5t-90 115t-158 32.5q-150 0 -215 -81t-65 -292z" />
<glyph unicode="p" d="M123 -389v1239q167 119 364 119q104 0 181 -24t137 -79t90.5 -153t30.5 -238q0 -132 -30 -229t-86.5 -154t-129.5 -83.5t-166 -26.5q-146 0 -248 77v-448q0 -21 -8 -29t-31 -8h-65q-23 0 -31 8t-8 29zM266 199q0 -9 27 -31t83.5 -44t119.5 -22q141 0 211.5 84t70.5 289 q0 91 -14 157.5t-38.5 107.5t-62.5 65.5t-79.5 33.5t-96.5 9q-54 0 -109 -17t-84 -34l-28 -17v-581z" />
<glyph unicode="q" d="M92 475q0 140 30.5 238t90 153t136 79t179.5 24q195 0 367 -119v-1239q0 -20 -8.5 -28.5t-30.5 -8.5h-68q-22 0 -30 8t-8 29v448q-97 -77 -246 -77q-412 0 -412 493zM238 475q0 -204 71 -288.5t211 -84.5q63 0 119.5 22t83.5 44t27 31v581q-10 8 -29 19t-77 30t-114 19 t-97.5 -9t-80 -33.5t-62.5 -65.5t-38 -107.5t-14 -157.5z" />
<glyph unicode="r" horiz-adv-x="630" d="M123 37v813q30 22 72 45.5t125 48.5t165 25q54 0 95 -8t41 -21q0 -5 -11 -68q-3 -17 -8.5 -23.5t-17.5 -6.5q-2 0 -32 3t-63 3q-65 0 -125.5 -21.5t-97.5 -46.5v-743q0 -20 -8.5 -28.5t-30.5 -8.5h-65q-22 0 -30.5 8.5t-8.5 28.5z" />
<glyph unicode="s" horiz-adv-x="718" d="M72 53q0 17 13.5 50.5t25.5 33.5q4 0 68 -19.5t124 -19.5q93 0 148 35.5t55 110.5q0 62 -44.5 102t-180.5 111q-41 21 -70.5 41.5t-61.5 52t-49.5 74t-17.5 94.5q0 111 77.5 180.5t235.5 69.5q80 0 156 -19.5t76 -42.5q0 -13 -14.5 -48.5t-30.5 -35.5q-4 0 -67.5 14.5 t-117.5 14.5q-91 0 -131.5 -37t-40.5 -90q0 -63 41.5 -101.5t169.5 -107.5q106 -57 158.5 -117t52.5 -143q0 -54 -15.5 -99.5t-51.5 -86.5t-105.5 -64.5t-167.5 -23.5q-81 0 -158 21.5t-77 49.5z" />
<glyph unicode="t" horiz-adv-x="628" d="M41 868v41q0 22 8.5 31.5t28.5 9.5h108v226q0 18 7 27t28 16q83 22 90 22q12 0 15.5 -6.5t3.5 -26.5v-258h221q19 0 28 -9t9 -32v-43q0 -39 -37 -39h-221v-475q0 -138 31.5 -195t119.5 -57q11 0 30 1t24 1q15 0 20.5 -7t7.5 -21q0 -4 2 -29t2 -27q0 -20 -23 -28t-83 -8 q-66 0 -115 17t-79.5 46.5t-48.5 77t-25 100.5t-7 125v479h-108q-20 0 -28.5 9t-8.5 32z" />
<glyph unicode="u" horiz-adv-x="1060" d="M113 330v581q0 21 9 30t30 9h65q22 0 30.5 -9t8.5 -30v-549q0 -260 246 -260q88 0 151.5 36.5t94.5 80.5v692q0 21 8.5 30t29.5 9h66q23 0 32 -9t9 -30v-696q0 -115 86 -115q9 0 22.5 1t16.5 1q21 0 24 -28q9 -58 9 -60q0 -8 -9.5 -15t-33.5 -12t-58 -5 q-66 0 -110.5 29.5t-59.5 86.5q-39 -41 -115.5 -78.5t-179.5 -37.5q-185 0 -278.5 88.5t-93.5 259.5z" />
<glyph unicode="v" horiz-adv-x="843" d="M0 926q0 24 33 24h80q21 0 29.5 -8.5t15.5 -30.5l266 -741l268 741q8 23 16.5 31t28.5 8h76q31 0 31 -16q0 -7 -8 -31l-334 -870q-7 -19 -14 -26t-25 -7h-82q-30 0 -41 33l-334 868q-6 18 -6 25z" />
<glyph unicode="w" horiz-adv-x="1306" d="M20 928q0 22 33 22h80q21 0 29.5 -7.5t13.5 -27.5l201 -745l207 762q7 18 26 18h84q23 0 29 -18l209 -762l198 745q5 15 8 21t11 10t22 4h84q31 0 31 -22q0 -5 -4 -21l-264 -874q-8 -20 -16 -26.5t-29 -6.5h-78q-22 0 -29 6.5t-14 26.5l-199 676l-198 -676 q-5 -20 -13 -26.5t-30 -6.5h-76q-21 0 -30 7t-15 26l-266 874q-5 20 -5 21z" />
<glyph unicode="x" horiz-adv-x="792" d="M10 18q0 7 6 19l303 461l-264 403q-10 15 -10 27q0 22 29 22h80q19 0 27.5 -5.5t17.5 -22.5l198 -312l199 312q11 18 19 23t28 5h80q27 0 27 -20q0 -5 -9 -23l-268 -409l299 -457q10 -17 10 -25q0 -16 -24 -16h-88q-16 0 -24.5 6.5t-18.5 22.5l-232 352l-227 -352 q-12 -17 -19.5 -23t-23.5 -6h-88q-27 0 -27 18z" />
<glyph unicode="y" horiz-adv-x="847" d="M10 926q0 24 31 24h82q20 0 28.5 -7t14.5 -28l262 -727l264 730q6 20 12.5 26t24.5 6h78q31 0 31 -24q0 -9 -4 -21l-474 -1249q-8 -21 -14 -27t-24 -6h-80q-29 0 -29 21q0 6 4 18l137 356l-340 889q-4 12 -4 19z" />
<glyph unicode="z" horiz-adv-x="794" d="M61 18q0 8 9 21l454 788h-409q-20 0 -28.5 9t-8.5 32v41q0 22 8.5 31.5t28.5 9.5h587q29 0 29 -24q0 -10 -6 -19l-455 -784h424q21 0 30 -9t9 -32v-43q0 -21 -9 -30t-30 -9h-606q-27 0 -27 18z" />
<glyph unicode="{" horiz-adv-x="598" d="M61 645v37q0 28 12 37.5t44 9.5q64 0 80 15t16 77v357q0 74 5 121t21.5 91.5t47 69t82.5 39t127 14.5h39q24 0 33.5 -9t9.5 -34v-36q0 -23 -9.5 -31t-33.5 -8h-52q-77 0 -102 -36.5t-25 -141.5v-336q0 -98 -19 -141.5t-77 -75.5q57 -29 76.5 -73.5t19.5 -141.5v-347 q0 -99 26 -138.5t101 -39.5h52q24 0 33.5 -8t9.5 -31v-39q0 -25 -9.5 -33t-33.5 -8h-39q-63 0 -109 9t-77 29.5t-50.5 46t-29.5 66.5t-13.5 82.5t-3.5 102.5v367q0 62 -16 77t-80 15q-35 0 -45.5 8.5t-10.5 36.5z" />
<glyph unicode="|" horiz-adv-x="464" d="M164 -389v1786q0 37 39 37h59q22 0 30.5 -8.5t8.5 -28.5v-1786q0 -37 -39 -37h-59q-22 0 -30.5 8.5t-8.5 28.5z" />
<glyph unicode="}" horiz-adv-x="598" d="M20 -115q0 23 9.5 31t33.5 8h50q77 0 102 39t25 139v347q0 96 20 141t76 74q-58 32 -77 75.5t-19 141.5v336q0 105 -24.5 141.5t-102.5 36.5h-50q-24 0 -33.5 8t-9.5 31v36q0 25 9.5 34t33.5 9h37q75 0 127 -14.5t83 -39t48 -69t22 -92t5 -120.5v-357q0 -62 16 -77 t80 -15q32 0 44 -9.5t12 -37.5v-37q0 -28 -10.5 -36.5t-45.5 -8.5q-64 0 -80 -15t-16 -77v-367q0 -61 -3.5 -102.5t-14 -82.5t-30 -66.5t-50.5 -46t-77.5 -29.5t-109.5 -9h-37q-24 0 -33.5 8t-9.5 33v39z" />
<glyph unicode="&#xa1;" horiz-adv-x="516" d="M133 1327q0 53 36.5 89t88.5 36q51 0 88 -36.5t37 -88.5t-37 -88.5t-88 -36.5q-52 0 -88.5 36t-36.5 89zM184 37v651l21 313q3 35 35 35h36q33 0 33 -35l23 -313v-651q0 -19 -9 -28t-32 -9h-68q-22 0 -30.5 8.5t-8.5 28.5z" />
<glyph unicode="&#xa2;" horiz-adv-x="927" d="M123 475q0 233 82.5 348.5t247.5 139.5v149q0 20 7.5 28.5t28.5 8.5h62q39 0 39 -37v-145q71 -6 129.5 -27t58.5 -43q0 -17 -17.5 -50.5t-31.5 -33.5q-5 0 -29 8.5t-64 17.5t-81 9q-57 0 -100 -10t-79.5 -35t-59.5 -66.5t-35.5 -107t-12.5 -154.5q0 -199 61.5 -286 t221.5 -87q56 0 104 10.5t75 20.5t32 10q14 0 28.5 -30.5t14.5 -53.5q0 -25 -67 -47.5t-148 -27.5v-146q0 -20 -8.5 -28.5t-30.5 -8.5h-62q-21 0 -28.5 7.5t-7.5 29.5v152q-171 24 -250.5 138.5t-79.5 346.5z" />
<glyph unicode="&#xa3;" horiz-adv-x="1169" d="M123 39v49q0 20 7.5 28.5t29.5 8.5h133v479h-133q-22 0 -29.5 8t-7.5 31v43q0 20 7.5 28.5t29.5 8.5h133v162q0 69 3 122t13.5 114.5t28 107t49 89.5t75 72t106.5 45t143 17q62 0 119 -8.5t95 -21t67 -26.5t42 -25t13 -17q0 -19 -24 -55.5t-36 -36.5q-10 0 -47.5 16 t-99 31.5t-129.5 15.5t-115.5 -17.5t-78 -49.5t-47.5 -87.5t-23.5 -120.5t-6.5 -159v-168h330q22 0 30.5 -8t8.5 -29v-45q0 -21 -8 -29t-31 -8h-330v-479h547q23 0 31 -7.5t8 -29.5v-51q0 -21 -8 -29t-31 -8h-827q-21 0 -29 8.5t-8 30.5z" />
<glyph unicode="&#xa5;" horiz-adv-x="1110" d="M61 1411q0 10 8.5 16.5t20.5 6.5h98q14 0 21 -7.5t16 -25.5l330 -649l332 653q18 29 37 29h96q29 0 29 -23q0 -8 -7 -22l-354 -666h221q22 0 29.5 -7.5t7.5 -29.5v-45q0 -22 -7.5 -29.5t-29.5 -7.5h-280v-153h280q22 0 29.5 -7.5t7.5 -29.5v-45q0 -22 -7.5 -29.5 t-29.5 -7.5h-280v-295q0 -20 -8.5 -28.5t-30.5 -8.5h-70q-39 0 -39 37v295h-280q-23 0 -31 8t-8 29v45q0 22 8 29.5t31 7.5h280v153h-280q-23 0 -31 7.5t-8 29.5v45q0 22 8 29.5t31 7.5h219l-352 666q-7 14 -7 22z" />
<glyph unicode="&#xa6;" horiz-adv-x="423" d="M143 -389v778q0 37 39 37h60q22 0 30.5 -8.5t8.5 -28.5v-778q0 -20 -8.5 -28.5t-30.5 -8.5h-60q-22 0 -30.5 8.5t-8.5 28.5zM143 618v779q0 37 39 37h60q22 0 30.5 -8.5t8.5 -28.5v-779q0 -20 -8.5 -28t-30.5 -8h-60q-22 0 -30.5 8t-8.5 28z" />
<glyph unicode="&#xa7;" horiz-adv-x="888" d="M123 70q0 12 13.5 47t25.5 35q7 0 36.5 -13.5t78.5 -27t104 -13.5q118 0 176.5 46.5t58.5 119.5q0 41 -25.5 75.5t-66.5 61t-90.5 52.5t-99 55t-90.5 62.5t-66.5 82.5t-25.5 107q0 138 112 205q-51 42 -77.5 89.5t-26.5 127.5q0 120 84 195t252 75q74 0 137 -13t95 -30.5 t32 -32.5q0 -12 -15 -47t-28 -35q-8 0 -38.5 10t-80.5 20.5t-104 10.5q-91 0 -141 -42.5t-50 -118.5q0 -49 34.5 -90.5t85.5 -70t111.5 -63t111.5 -68t85.5 -86t34.5 -116.5q0 -140 -98 -221q92 -82 92 -185q0 -57 -17.5 -105.5t-57 -92.5t-115 -69t-179.5 -25 q-99 0 -183.5 28t-84.5 60zM295 762q0 -29 18 -58t52.5 -55.5t61.5 -44t70 -40.5t52 -29q42 21 58 55.5t16 87.5q0 16 -6.5 32t-15.5 29t-27 29t-30.5 26t-38 26t-38.5 23.5t-42.5 23.5t-39.5 22q-42 -12 -66 -45t-24 -82z" />
<glyph unicode="&#xa8;" horiz-adv-x="651" d="M102 1214q0 40 24 63t64 23q33 0 59.5 -25t26.5 -61q0 -35 -25.5 -60.5t-60.5 -25.5q-39 0 -63.5 25t-24.5 61zM375 1214q0 40 24 63t64 23q33 0 59.5 -25t26.5 -61q0 -35 -25.5 -60.5t-60.5 -25.5q-39 0 -63.5 25t-24.5 61z" />
<glyph unicode="&#xa9;" horiz-adv-x="1718" d="M123 717q0 201 98.5 370t267.5 267t369 98q150 0 286.5 -58t235.5 -156t157 -234.5t58 -286.5t-58 -286.5t-157 -234.5t-235.5 -156t-286.5 -58q-200 0 -369 98t-267.5 267t-98.5 370zM252 717q0 -124 48 -239.5t128.5 -200.5t193.5 -136t236 -51q124 0 237 51t194 136 t129 200.5t48 239.5t-48 239t-129 199.5t-194 135t-237 50.5q-123 0 -236 -50.5t-193.5 -135t-128.5 -199.5t-48 -239zM575 721q0 215 72 306t242 91q71 0 128.5 -23.5t57.5 -43.5q0 -4 -22 -43q-13 -21 -27 -21q-4 0 -22 7.5t-49 14.5t-66 7q-109 0 -151 -63.5t-42 -231.5 q0 -162 40.5 -227.5t152.5 -65.5q39 0 72 8t52.5 16.5t24.5 8.5q3 0 6.5 -1.5t7.5 -6t6 -7t7 -10t6 -8.5q14 -21 14 -33q0 -11 -20.5 -26.5t-68 -29t-107.5 -13.5q-170 0 -242 90.5t-72 304.5z" />
<glyph unicode="&#xaa;" horiz-adv-x="935" d="M102 1081q0 190 80 280.5t248 90.5q88 0 162 -19t104 -38l31 -19v-489q0 -51 45 -51q9 0 22 1t15 1q13 0 19 -25t6 -41q0 -19 -26.5 -32t-76.5 -13q-25 0 -46 8.5t-33 20.5t-20 24t-11 20l-3 9q-74 -80 -219 -80q-151 0 -224 92.5t-73 259.5zM229 1081q0 -247 187 -247 q133 0 186 86v391q-82 35 -172 35q-115 0 -158 -67t-43 -198z" />
<glyph unicode="&#xab;" horiz-adv-x="735" d="M61 508q0 13 11 27l196 278q17 25 27 32t27 7l49 -6q18 -3 18 -19q0 -8 -12 -32l-170 -287l170 -289q12 -24 12 -33q0 -15 -18 -18l-49 -6q-17 0 -27 7t-27 32l-196 278q-11 14 -11 29zM336 508q0 14 10 27l184 278q17 25 27 32t27 7l51 -6q18 -3 18 -19q0 -4 -14 -32 l-158 -287l158 -289q14 -28 14 -33q0 -15 -18 -18l-51 -6q-17 0 -27 7t-27 32l-184 278q-10 13 -10 29z" />
<glyph unicode="&#xad;" horiz-adv-x="917" d="M143 547v45q0 22 7.5 29.5t29.5 7.5h557q22 0 29.5 -7.5t7.5 -29.5v-45q0 -22 -7.5 -29.5t-29.5 -7.5h-557q-22 0 -29.5 7.5t-7.5 29.5z" />
<glyph unicode="&#xae;" horiz-adv-x="1718" d="M123 717q0 201 98.5 370t267.5 267t369 98q150 0 286.5 -58t235.5 -156t157 -234.5t58 -286.5t-58 -286.5t-157 -234.5t-235.5 -156t-286.5 -58q-200 0 -369 98t-267.5 267t-98.5 370zM252 717q0 -124 48 -239.5t128.5 -200.5t193.5 -136t236 -51q124 0 237 51t194 136 t129 200.5t48 239.5t-48 239t-129 199.5t-194 135t-237 50.5q-123 0 -236 -50.5t-193.5 -135t-128.5 -199.5t-48 -239zM596 379v684q0 22 8 30.5t29 8.5h295q103 0 162 -61t59 -167q0 -83 -42.5 -141t-119.5 -78l148 -272q6 -9 6 -16q0 -25 -33 -25h-51q-16 0 -25.5 9.5 t-21.5 31.5l-146 264h-153v-268q0 -20 -7 -28.5t-26 -8.5h-47q-21 0 -28 8t-7 29zM711 748h209q55 0 83.5 35.5t28.5 93.5q0 54 -29 89t-83 35h-209v-253z" />
<glyph unicode="&#xaf;" horiz-adv-x="753" d="M102 1208v35q0 24 11 31.5t43 7.5h442q32 0 42.5 -7t10.5 -32v-35q0 -26 -10.5 -33.5t-42.5 -7.5h-442q-33 0 -43.5 7t-10.5 34z" />
<glyph unicode="&#xb0;" horiz-adv-x="708" d="M102 1202q0 104 74 177t178 73t178 -73t74 -177q0 -105 -73.5 -178.5t-178.5 -73.5t-178.5 73.5t-73.5 178.5zM201 1204q0 -66 44.5 -110.5t108.5 -44.5q66 0 110 44.5t44 110.5q0 63 -44 106.5t-110 43.5q-63 0 -108 -43.5t-45 -106.5z" />
<glyph unicode="&#xb1;" horiz-adv-x="1013" d="M143 205v45q0 22 7.5 29.5t29.5 7.5h654q22 0 29 -7.5t7 -29.5v-45q0 -22 -7 -29.5t-29 -7.5h-654q-22 0 -29.5 7.5t-7.5 29.5zM143 791v45q0 22 7.5 29t29.5 7h266v269q0 22 7.5 29.5t29.5 7.5h45q22 0 29.5 -7.5t7.5 -29.5v-269h269q22 0 29 -7t7 -29v-45 q0 -22 -7 -29.5t-29 -7.5h-269v-269q0 -22 -7.5 -29t-29.5 -7h-45q-22 0 -29.5 7t-7.5 29v269h-266q-22 0 -29.5 7.5t-7.5 29.5z" />
<glyph unicode="&#xb4;" horiz-adv-x="624" d="M102 1143q0 10 21 31l278 247q19 19 39 19q21 0 35 -21l35 -45q12 -14 12 -31q0 -19 -28 -38l-314 -197q-26 -16 -33 -16q-6 0 -18 12l-18 20q-9 12 -9 19z" />
<glyph unicode="&#xb6;" horiz-adv-x="1257" d="M61 1028q0 182 108.5 294t315.5 112h572q57 0 57 -56v-1341q0 -19 -8.5 -28t-30.5 -9h-63q-21 0 -30 8t-9 29v1272h-244v-1272q0 -19 -8.5 -28t-30.5 -9h-63q-22 0 -30.5 8.5t-8.5 28.5v586h-103q-108 0 -190.5 31t-133 86t-75.5 127.5t-25 160.5zM211 1028 q0 -133 69 -206.5t216 -73.5h92v561h-92q-285 0 -285 -281z" />
<glyph unicode="&#xb7;" horiz-adv-x="452" d="M102 659q0 51 36.5 87t88.5 36q51 0 87 -36t36 -87q0 -52 -36 -88t-87 -36q-53 0 -89 36t-36 88z" />
<glyph unicode="&#xb8;" horiz-adv-x="579" d="M102 -319l7 26q8 19 24 19q4 0 21 -5t44.5 -9.5t59.5 -4.5q57 0 89 21.5t32 58.5q0 33 -23 49.5t-63 16.5q-56 0 -103 -21l-49 62l84 106h92l-53 -80q27 8 60 8q72 0 112.5 -37t40.5 -98q0 -76 -59 -119t-168 -43q-50 0 -99 15.5t-49 34.5z" />
<glyph unicode="&#xba;" horiz-adv-x="851" d="M102 1087q0 195 79.5 280t244.5 85t244.5 -85t79.5 -280q0 -192 -79.5 -276t-244.5 -84t-244.5 84t-79.5 276zM229 1087q0 -131 40.5 -192t156.5 -61t156.5 61t40.5 192q0 135 -40 197t-157 62q-116 0 -156.5 -62.5t-40.5 -196.5z" />
<glyph unicode="&#xbb;" horiz-adv-x="735" d="M82 186q0 12 14 33l156 289l-156 287q-14 28 -14 32q0 16 18 19l50 6q17 0 26 -7t27 -32l184 -278q10 -13 10 -27q0 -16 -10 -29l-184 -278q-18 -25 -27 -32t-26 -7l-50 6q-18 3 -18 18zM344 186q0 5 14 33l170 289l-170 287q-14 28 -14 32q0 16 21 19l49 6q17 0 26 -7 t27 -32l197 -278q10 -13 10 -27q0 -16 -10 -29l-197 -278q-18 -25 -27 -32t-26 -7l-49 6q-21 3 -21 18z" />
<glyph unicode="&#xbf;" horiz-adv-x="970" d="M102 305q0 86 31 151.5t92.5 120t169.5 117.5q46 28 65.5 40t44 31t31.5 30.5t16 33t10 43.5t1 58v55q0 30 7 40.5t30 10.5h72q24 0 31.5 -11t7.5 -40v-65q0 -119 -37 -181t-158 -129q-159 -89 -209.5 -150t-50.5 -155q0 -199 276 -199q63 0 130 17.5t109 35t44 17.5 q18 0 41 -40.5t23 -53.5q0 -10 -46.5 -33t-133.5 -45t-173 -22q-424 0 -424 323zM512 1327q0 53 36 89t89 36q51 0 87 -36.5t36 -88.5t-36 -88.5t-87 -36.5q-53 0 -89 36t-36 89z" />
<glyph unicode="&#xc0;" horiz-adv-x="1157" d="M20 20q0 2 5 17l438 1360q6 22 13.5 29.5t25.5 7.5h153q18 0 25.5 -7t15.5 -30l437 -1360q4 -12 4 -17q0 -20 -29 -20h-82q-19 0 -26 7t-15 30l-125 383h-565l-123 -383q-5 -15 -8 -21.5t-11 -11t-22 -4.5h-80q-31 0 -31 20zM287 1827q0 17 12 31l35 45q13 20 35 20 q21 0 39 -18l278 -248q21 -21 21 -31q0 -6 -9 -18l-16 -21q-12 -12 -18 -12q-9 0 -35 16l-314 197q-28 19 -28 39zM336 545h485l-243 749z" />
<glyph unicode="&#xc1;" horiz-adv-x="1157" d="M20 20q0 2 5 17l438 1360q6 22 13.5 29.5t25.5 7.5h153q18 0 25.5 -7t15.5 -30l437 -1360q4 -12 4 -17q0 -20 -29 -20h-82q-19 0 -26 7t-15 30l-125 383h-565l-123 -383q-5 -15 -8 -21.5t-11 -11t-22 -4.5h-80q-31 0 -31 20zM336 545h485l-243 749zM451 1626q0 11 20 31 l279 248q18 18 38 18q22 0 35 -20l35 -45q12 -14 12 -31q0 -20 -28 -39l-314 -197q-26 -16 -32 -16q-7 0 -19 12l-18 21q-8 11 -8 18z" />
<glyph unicode="&#xc2;" horiz-adv-x="1157" d="M20 20q0 2 5 17l438 1360q6 22 13.5 29.5t25.5 7.5h153q18 0 25.5 -7t15.5 -30l437 -1360q4 -12 4 -17q0 -20 -29 -20h-82q-19 0 -26 7t-15 30l-125 383h-565l-123 -383q-5 -15 -8 -21.5t-11 -11t-22 -4.5h-80q-31 0 -31 20zM285 1640q0 12 22 31l230 213q22 19 43 19 q19 0 41 -19l229 -213q22 -19 22 -31q0 -7 -10 -20l-12 -16q-11 -15 -21 -15q-6 0 -38 19l-213 139l-211 -139q-32 -19 -39 -19q-10 0 -21 15l-12 16q-10 13 -10 20zM336 545h485l-243 749z" />
<glyph unicode="&#xc3;" horiz-adv-x="1157" d="M20 20q0 2 5 17l438 1360q6 22 13.5 29.5t25.5 7.5h153q18 0 25.5 -7t15.5 -30l437 -1360q4 -12 4 -17q0 -20 -29 -20h-82q-19 0 -26 7t-15 30l-125 383h-565l-123 -383q-5 -15 -8 -21.5t-11 -11t-22 -4.5h-80q-31 0 -31 20zM242 1702q0 22 71 53t136 31q64 0 148 -30 t140 -30q36 0 77 14.5t58 14.5t27 -16q16 -45 16 -51q0 -22 -68 -52t-132 -30q-69 0 -153 28.5t-138 28.5q-30 0 -75 -14.5t-64 -14.5t-27 17q-16 47 -16 51zM336 545h485l-243 749z" />
<glyph unicode="&#xc4;" horiz-adv-x="1157" d="M20 20q0 2 5 17l438 1360q6 22 13.5 29.5t25.5 7.5h153q18 0 25.5 -7t15.5 -30l437 -1360q4 -12 4 -17q0 -20 -29 -20h-82q-19 0 -26 7t-15 30l-125 383h-565l-123 -383q-5 -15 -8 -21.5t-11 -11t-22 -4.5h-80q-31 0 -31 20zM336 545h485l-243 749zM354 1698q0 40 24 63 t64 23q33 0 59.5 -25t26.5 -61q0 -35 -25.5 -60.5t-60.5 -25.5q-39 0 -63.5 25t-24.5 61zM627 1698q0 40 24 63t64 23q33 0 59.5 -25t26.5 -61q0 -35 -25.5 -60.5t-60.5 -25.5q-39 0 -63.5 25t-24.5 61z" />
<glyph unicode="&#xc5;" horiz-adv-x="1157" d="M20 20q0 2 5 17l438 1360q6 22 13.5 29.5t25.5 7.5h153q18 0 25.5 -7t15.5 -30l437 -1360q4 -12 4 -17q0 -20 -29 -20h-82q-19 0 -26 7t-15 30l-125 383h-565l-123 -383q-5 -15 -8 -21.5t-11 -11t-22 -4.5h-80q-31 0 -31 20zM336 545h485l-243 749zM401 1761 q0 78 49.5 126t127.5 48q69 0 122.5 -51t53.5 -123q0 -70 -52.5 -122t-123.5 -52q-77 0 -127 51t-50 123zM483 1761q0 -39 26.5 -67.5t65.5 -28.5q38 0 67.5 29t29.5 67t-30 68.5t-67 30.5q-39 0 -65.5 -28.5t-26.5 -70.5z" />
<glyph unicode="&#xc6;" horiz-adv-x="1761" d="M20 25q0 10 11 32l712 1319q15 31 29.5 44.5t40.5 13.5h807q22 0 29.5 -9.5t7.5 -29.5v-47q0 -21 -7.5 -30t-29.5 -9h-606v-512h567q22 0 29.5 -9t7.5 -30v-47q0 -20 -7.5 -29.5t-29.5 -9.5h-567v-547h610q21 0 28 -9t7 -30v-47q0 -20 -7 -29.5t-28 -9.5h-700 q-56 0 -56 57v363h-479l-205 -377q-9 -17 -13.5 -24t-13.5 -13t-22 -6h-80q-35 0 -35 25zM457 545h411v758z" />
<glyph unicode="&#xc7;" horiz-adv-x="1071" d="M102 717q0 271 54 430t172.5 232t320.5 73q91 0 168 -19t111.5 -39t34.5 -30q0 -11 -24.5 -52.5t-35.5 -41.5q-4 0 -35 14t-89.5 27.5t-129.5 13.5q-225 0 -309 -133.5t-84 -474.5t84 -474.5t309 -133.5q73 0 140 17.5t106 35.5t43 18q16 0 33.5 -39.5t17.5 -54.5 q0 -17 -48.5 -41t-131.5 -43.5t-164 -19.5h-10l-41 -62q26 8 59 8q71 0 112.5 -37t41.5 -98q0 -76 -59 -119t-170 -43q-49 0 -97.5 15.5t-48.5 34.5q0 23 9.5 34t19.5 11q1 0 41.5 -9.5t83.5 -9.5q56 0 89.5 21t33.5 59q0 66 -88 66q-56 0 -103 -21l-49 62l76 94 q-240 25 -341.5 194t-101.5 535z" />
<glyph unicode="&#xc8;" d="M123 37v1360q0 37 39 37h715q20 0 28 -8.5t8 -30.5v-47q0 -23 -7.5 -31t-28.5 -8h-607v-512h568q20 0 28 -8.5t8 -30.5v-47q0 -22 -8 -30.5t-28 -8.5h-568v-547h609q21 0 28.5 -8t7.5 -31v-47q0 -22 -8 -30.5t-28 -8.5h-717q-39 0 -39 37zM264 1827q0 17 12 31l35 45 q13 20 35 20q21 0 39 -18l279 -248q20 -20 20 -31q0 -7 -8 -18l-17 -21q-12 -12 -18 -12q-9 0 -35 16l-313 197q-29 19 -29 39z" />
<glyph unicode="&#xc9;" d="M123 37v1360q0 37 39 37h715q20 0 28 -8.5t8 -30.5v-47q0 -23 -7.5 -31t-28.5 -8h-607v-512h568q20 0 28 -8.5t8 -30.5v-47q0 -22 -8 -30.5t-28 -8.5h-568v-547h609q21 0 28.5 -8t7.5 -31v-47q0 -22 -8 -30.5t-28 -8.5h-717q-39 0 -39 37zM373 1626q0 11 20 31l279 248 q18 18 39 18t34 -20l35 -45q13 -16 13 -31q0 -20 -29 -39l-313 -197q-26 -16 -33 -16t-19 12l-18 21q-8 11 -8 18z" />
<glyph unicode="&#xca;" d="M123 37v1360q0 37 39 37h715q20 0 28 -8.5t8 -30.5v-47q0 -23 -7.5 -31t-28.5 -8h-607v-512h568q20 0 28 -8.5t8 -30.5v-47q0 -22 -8 -30.5t-28 -8.5h-568v-547h609q21 0 28.5 -8t7.5 -31v-47q0 -22 -8 -30.5t-28 -8.5h-717q-39 0 -39 37zM221 1640q0 11 23 31l229 213 q22 19 43 19q19 0 41 -19l229 -213q23 -20 23 -31q0 -7 -10 -20l-13 -16q-11 -15 -20 -15q-7 0 -39 19l-213 139l-211 -139q-32 -19 -39 -19q-9 0 -20 15l-13 16q-10 13 -10 20z" />
<glyph unicode="&#xcb;" d="M123 37v1360q0 37 39 37h715q20 0 28 -8.5t8 -30.5v-47q0 -23 -7.5 -31t-28.5 -8h-607v-512h568q20 0 28 -8.5t8 -30.5v-47q0 -22 -8 -30.5t-28 -8.5h-568v-547h609q21 0 28.5 -8t7.5 -31v-47q0 -22 -8 -30.5t-28 -8.5h-717q-39 0 -39 37zM307 1698q0 40 24 63t64 23 q33 0 59.5 -25t26.5 -61q0 -35 -25.5 -60.5t-60.5 -25.5q-39 0 -63.5 25t-24.5 61zM580 1698q0 40 24 63t64 23q33 0 59.5 -25t26.5 -61q0 -35 -25.5 -60.5t-60.5 -25.5q-39 0 -63.5 25t-24.5 61z" />
<glyph unicode="&#xcc;" horiz-adv-x="393" d="M-88 1827q0 17 12 31l35 45q13 20 35 20q21 0 39 -18l278 -248q21 -21 21 -31q0 -7 -8 -18l-17 -21q-12 -12 -18 -12q-9 0 -35 16l-313 197q-29 19 -29 39zM123 37v1360q0 37 39 37h69q39 0 39 -37v-1360q0 -37 -39 -37h-69q-22 0 -30.5 8.5t-8.5 28.5z" />
<glyph unicode="&#xcd;" horiz-adv-x="393" d="M61 1626q0 10 21 31l278 248q18 18 39 18q22 0 35 -20l35 -45q12 -14 12 -31q0 -20 -28 -39l-314 -197q-26 -16 -33 -16q-6 0 -18 12l-18 21q-9 12 -9 18zM123 37v1360q0 37 39 37h69q39 0 39 -37v-1360q0 -37 -39 -37h-69q-22 0 -30.5 8.5t-8.5 28.5z" />
<glyph unicode="&#xce;" horiz-adv-x="393" d="M-98 1640q0 12 22 31l230 213q22 19 43 19q19 0 41 -19l229 -213q22 -19 22 -31q0 -7 -10 -20l-12 -16q-11 -15 -21 -15q-6 0 -38 19l-213 139l-211 -139q-32 -19 -39 -19q-10 0 -21 15l-12 16q-10 13 -10 20zM123 37v1360q0 37 39 37h69q39 0 39 -37v-1360 q0 -37 -39 -37h-69q-22 0 -30.5 8.5t-8.5 28.5z" />
<glyph unicode="&#xcf;" horiz-adv-x="393" d="M-27 1698q0 40 24 63t64 23q33 0 59.5 -25t26.5 -61q0 -35 -25.5 -60.5t-60.5 -25.5q-39 0 -63.5 25t-24.5 61zM123 37v1360q0 37 39 37h69q39 0 39 -37v-1360q0 -37 -39 -37h-69q-22 0 -30.5 8.5t-8.5 28.5zM246 1698q0 40 24 63t64 23q33 0 59.5 -25t26.5 -61 q0 -35 -25.5 -60.5t-60.5 -25.5q-39 0 -63.5 25t-24.5 61z" />
<glyph unicode="&#xd0;" horiz-adv-x="1253" d="M31 754v41q0 36 37 36h86v566q0 37 39 37h397q205 0 325.5 -68t178 -224.5t57.5 -424.5t-57.5 -424.5t-178 -224.5t-325.5 -68h-397q-39 0 -39 37v676h-86q-19 0 -28 9t-9 32zM301 125h289q96 0 163.5 19.5t116 61t76.5 112.5t40.5 167t12.5 232t-12.5 232t-40.5 167 t-76.5 112.5t-116 61t-163.5 19.5h-289v-478h268q21 0 29 -7.5t8 -28.5v-43q0 -22 -8.5 -30.5t-28.5 -8.5h-268v-588z" />
<glyph unicode="&#xd1;" horiz-adv-x="1183" d="M123 37v1360q0 19 7.5 28t27.5 9h75q16 0 23 -6t18 -23l641 -1110v1102q0 20 8 28.5t29 8.5h70q39 0 39 -37v-1360q0 -37 -39 -37h-74q-17 0 -25 6t-16 23l-637 1097v-1089q0 -37 -39 -37h-69q-39 0 -39 37zM242 1702q0 22 71 53t136 31q64 0 148 -30t140 -30 q36 0 77 14.5t58 14.5t27 -16q16 -45 16 -51q0 -22 -68 -52t-132 -30q-69 0 -153 28.5t-138 28.5q-30 0 -75 -14.5t-64 -14.5t-27 17q-16 47 -16 51z" />
<glyph unicode="&#xd2;" horiz-adv-x="1286" d="M102 717q0 399 123 567t418 168t418 -168t123 -567t-123 -567t-418 -168t-418 168t-123 567zM256 717q0 -131 10 -223t35 -169t69 -122t111 -69.5t162 -24.5t162 24.5t111 69.5t69 122t35 169t10 223t-10 223t-35 169t-69 122t-111 69.5t-162 24.5t-162 -24.5t-111 -69.5 t-69 -122t-35 -169t-10 -223zM350 1827q0 17 12 31l35 45q13 20 35 20q21 0 39 -18l279 -248q20 -20 20 -31q0 -7 -8 -18l-17 -21q-12 -12 -18 -12q-9 0 -35 16l-313 197q-29 19 -29 39z" />
<glyph unicode="&#xd3;" horiz-adv-x="1286" d="M102 717q0 399 123 567t418 168t418 -168t123 -567t-123 -567t-418 -168t-418 168t-123 567zM256 717q0 -131 10 -223t35 -169t69 -122t111 -69.5t162 -24.5t162 24.5t111 69.5t69 122t35 169t10 223t-10 223t-35 169t-69 122t-111 69.5t-162 24.5t-162 -24.5t-111 -69.5 t-69 -122t-35 -169t-10 -223zM514 1626q0 10 21 31l278 248q18 18 39 18q22 0 35 -20l35 -45q12 -14 12 -31q0 -20 -29 -39l-313 -197q-26 -16 -33 -16q-6 0 -18 12l-19 21q-8 11 -8 18z" />
<glyph unicode="&#xd4;" horiz-adv-x="1286" d="M102 717q0 399 123 567t418 168t418 -168t123 -567t-123 -567t-418 -168t-418 168t-123 567zM256 717q0 -131 10 -223t35 -169t69 -122t111 -69.5t162 -24.5t162 24.5t111 69.5t69 122t35 169t10 223t-10 223t-35 169t-69 122t-111 69.5t-162 24.5t-162 -24.5t-111 -69.5 t-69 -122t-35 -169t-10 -223zM348 1640q0 11 23 31l229 213q22 19 43 19q19 0 41 -19l229 -213q23 -20 23 -31q0 -7 -10 -20l-13 -16q-11 -15 -20 -15q-7 0 -39 19l-213 139l-211 -139q-32 -19 -39 -19q-9 0 -20 15l-13 16q-10 13 -10 20z" />
<glyph unicode="&#xd5;" horiz-adv-x="1286" d="M102 717q0 399 123 567t418 168t418 -168t123 -567t-123 -567t-418 -168t-418 168t-123 567zM256 717q0 -131 10 -223t35 -169t69 -122t111 -69.5t162 -24.5t162 24.5t111 69.5t69 122t35 169t10 223t-10 223t-35 169t-69 122t-111 69.5t-162 24.5t-162 -24.5t-111 -69.5 t-69 -122t-35 -169t-10 -223zM305 1702q0 22 71 53t136 31q64 0 148.5 -30t140.5 -30q36 0 77 14.5t58 14.5t27 -16q16 -45 16 -51q0 -22 -68.5 -52t-132.5 -30q-69 0 -153 28.5t-138 28.5q-31 0 -75.5 -14.5t-63.5 -14.5q-18 0 -26 17q-17 47 -17 51z" />
<glyph unicode="&#xd6;" horiz-adv-x="1286" d="M102 717q0 399 123 567t418 168t418 -168t123 -567t-123 -567t-418 -168t-418 168t-123 567zM256 717q0 -131 10 -223t35 -169t69 -122t111 -69.5t162 -24.5t162 24.5t111 69.5t69 122t35 169t10 223t-10 223t-35 169t-69 122t-111 69.5t-162 24.5t-162 -24.5t-111 -69.5 t-69 -122t-35 -169t-10 -223zM422 1698q0 40 24 63t64 23q33 0 59.5 -25t26.5 -61q0 -35 -25.5 -60.5t-60.5 -25.5q-39 0 -63.5 25t-24.5 61zM694 1698q0 40 24 63t64 23q33 0 59.5 -25t26.5 -61q0 -35 -25.5 -60.5t-60.5 -25.5q-39 0 -63.5 25t-24.5 61z" />
<glyph unicode="&#xd7;" horiz-adv-x="897" d="M143 340q0 10 17 27l205 202l-203 203q-17 17 -17 27q0 7 15 26l33 31q16 16 26 16q11 0 27 -16l203 -203l202 205q16 16 27 16t24 -16l35 -33q17 -21 17 -26q0 -8 -19 -27l-205 -203l205 -202q17 -17 17 -27q0 -8 -15 -27l-35 -32q-14 -17 -24 -17t-27 17l-202 204 l-203 -204q-20 -17 -29 -17q-7 0 -24 17l-35 32q-15 15 -15 27z" />
<glyph unicode="&#xd8;" horiz-adv-x="1286" d="M102 717q0 151 15 262t51.5 203.5t97.5 150t155 88.5t222 31q155 0 252 -43l25 57q12 27 22.5 36t28.5 9h59q35 0 35 -28q0 -5 -8 -29l-49 -111q94 -91 135 -237t41 -389q0 -400 -122.5 -567.5t-418.5 -167.5q-137 0 -235 34l-21 -45q-13 -33 -23.5 -41t-35.5 -8h-56 q-13 0 -21.5 8.5t-8.5 20.5q0 1 10 31l43 96q-193 140 -193 639zM256 717q0 -189 21.5 -309t80.5 -187q42 94 208 458.5t274 606.5q-80 39 -197 39q-92 0 -158 -23t-110.5 -67.5t-70.5 -119.5t-37 -170t-11 -228zM465 139q70 -30 178 -30q94 0 161 24t111 69.5t69.5 121.5 t35.5 169t10 224q0 178 -19.5 293t-70.5 186z" />
<glyph unicode="&#xd9;" horiz-adv-x="1212" d="M113 584v813q0 37 39 37h69q39 0 39 -37v-819q0 -109 9 -183t31.5 -131.5t62.5 -90t99 -48.5t144 -16q106 0 172 23.5t105.5 81.5t54 143t14.5 221v819q0 37 39 37h68q23 0 32 -9t9 -28v-813q0 -166 -23 -276t-80.5 -185.5t-152 -108t-238.5 -32.5t-238.5 32.5 t-151.5 108t-80 185t-23 276.5zM287 1827q0 17 12 31l35 45q13 20 35 20q21 0 39 -18l278 -248q21 -21 21 -31q0 -6 -9 -18l-16 -21q-12 -12 -18 -12q-9 0 -35 16l-314 197q-28 19 -28 39z" />
<glyph unicode="&#xda;" horiz-adv-x="1212" d="M113 584v813q0 37 39 37h69q39 0 39 -37v-819q0 -109 9 -183t31.5 -131.5t62.5 -90t99 -48.5t144 -16q106 0 172 23.5t105.5 81.5t54 143t14.5 221v819q0 37 39 37h68q23 0 32 -9t9 -28v-813q0 -166 -23 -276t-80.5 -185.5t-152 -108t-238.5 -32.5t-238.5 32.5 t-151.5 108t-80 185t-23 276.5zM498 1626q0 11 20 31l279 248q18 18 39 18t34 -20l35 -45q13 -16 13 -31q0 -20 -29 -39l-314 -197q-26 -16 -32 -16q-7 0 -19 12l-18 21q-8 11 -8 18z" />
<glyph unicode="&#xdb;" horiz-adv-x="1212" d="M113 584v813q0 37 39 37h69q39 0 39 -37v-819q0 -109 9 -183t31.5 -131.5t62.5 -90t99 -48.5t144 -16q106 0 172 23.5t105.5 81.5t54 143t14.5 221v819q0 37 39 37h68q23 0 32 -9t9 -28v-813q0 -166 -23 -276t-80.5 -185.5t-152 -108t-238.5 -32.5t-238.5 32.5 t-151.5 108t-80 185t-23 276.5zM311 1640q0 11 23 31l229 213q22 19 43 19q19 0 41 -19l230 -213q22 -19 22 -31q0 -7 -10 -20l-12 -16q-11 -15 -21 -15q-7 0 -39 19l-213 139l-211 -139q-32 -19 -39 -19q-9 0 -20 15l-12 16q-11 15 -11 20z" />
<glyph unicode="&#xdc;" horiz-adv-x="1212" d="M113 584v813q0 37 39 37h69q39 0 39 -37v-819q0 -109 9 -183t31.5 -131.5t62.5 -90t99 -48.5t144 -16q106 0 172 23.5t105.5 81.5t54 143t14.5 221v819q0 37 39 37h68q23 0 32 -9t9 -28v-813q0 -166 -23 -276t-80.5 -185.5t-152 -108t-238.5 -32.5t-238.5 32.5 t-151.5 108t-80 185t-23 276.5zM383 1698q0 40 24 63t64 23q33 0 59.5 -25t26.5 -61q0 -35 -25.5 -60.5t-60.5 -25.5q-39 0 -63.5 25t-24.5 61zM655 1698q0 40 24 63t64 23q33 0 59.5 -25t26.5 -61q0 -35 -25.5 -60.5t-60.5 -25.5q-39 0 -63.5 25t-24.5 61z" />
<glyph unicode="&#xdd;" horiz-adv-x="1028" d="M20 1411q0 10 8.5 16.5t20.5 6.5h98q14 0 21 -7.5t16 -25.5l330 -649l332 653q18 29 37 29h96q29 0 29 -23q0 -8 -7 -22l-413 -781v-571q0 -20 -8.5 -28.5t-30.5 -8.5h-70q-39 0 -39 37v571l-413 781q-7 14 -7 22zM426 1626q0 11 20 31l279 248q18 18 39 18q22 0 35 -20 l35 -45q12 -14 12 -31q0 -20 -29 -39l-313 -197q-26 -16 -33 -16q-6 0 -18 12l-19 21q-8 11 -8 18z" />
<glyph unicode="&#xde;" horiz-adv-x="1128" d="M123 37v1360q0 37 39 37h69q39 0 39 -37v-195h392q93 0 165.5 -23t117 -61t73.5 -91t40 -108t11 -118q0 -82 -20 -150t-64.5 -126t-126.5 -91t-196 -33h-392v-364q0 -37 -39 -37h-69q-39 0 -39 37zM270 524h371q151 0 215 71.5t64 207.5q0 132 -63.5 203t-215.5 71h-371 v-553z" />
<glyph unicode="&#xdf;" horiz-adv-x="1107" d="M141 37v932q0 89 6.5 155.5t26.5 131t54 105.5t90.5 66t134.5 25q79 0 146 -32.5t108 -78.5t73 -104.5t45.5 -99.5t20.5 -76l6 -47q-120 -25 -185 -76t-65 -125q0 -29 12 -58.5t25.5 -49.5t44.5 -49t46.5 -41.5t55.5 -43.5q112 -88 166 -156t54 -151q0 -36 -7.5 -70.5 t-30 -74t-58.5 -69t-98 -49t-142 -19.5q-93 0 -174.5 29t-81.5 61q0 14 18 44.5t33 30.5q6 0 33.5 -12t73 -24.5t94.5 -12.5q86 0 141 41t55 119q0 57 -41 104t-149 134q-55 46 -75 63.5t-55.5 53.5t-48 60.5t-23.5 61t-11 78.5q0 95 66.5 165.5t183.5 108.5 q-30 105 -97 174.5t-147 69.5q-100 0 -139 -81t-39 -267v-946q0 -37 -39 -37h-68q-21 0 -30 8t-9 29z" />
<glyph unicode="&#xe0;" horiz-adv-x="1064" d="M92 471q0 268 110 383t324 115q90 0 174.5 -20t125.5 -38.5t69 -36.5v-661q0 -57 19 -86t67 -29q10 0 25 2t18 2q18 0 23 -30q1 -6 3 -20l3.5 -24.5t1.5 -13.5q0 -8 -10 -15t-35 -12t-62 -5q-127 0 -166 114q-10 -11 -30 -26t-57 -37t-93 -36.5t-117 -14.5 q-393 0 -393 489zM238 471q0 -191 67 -280t201 -89q52 0 99 15t76.5 36.5t46.5 37.5t22 26v580q-11 6 -31 14.5t-78 22.5t-113 14q-150 0 -220 -85t-70 -292zM240 1343q0 17 12 31l35 45q14 21 35 21q19 0 38 -19l279 -247q20 -20 20 -31q0 -8 -8 -19l-16 -20 q-12 -12 -19 -12q-8 0 -34 16l-314 197q-28 19 -28 38z" />
<glyph unicode="&#xe1;" horiz-adv-x="1064" d="M92 471q0 268 110 383t324 115q90 0 174.5 -20t125.5 -38.5t69 -36.5v-661q0 -57 19 -86t67 -29q10 0 25 2t18 2q18 0 23 -30q1 -6 3 -20l3.5 -24.5t1.5 -13.5q0 -8 -10 -15t-35 -12t-62 -5q-127 0 -166 114q-10 -11 -30 -26t-57 -37t-93 -36.5t-117 -14.5 q-393 0 -393 489zM238 471q0 -191 67 -280t201 -89q52 0 99 15t76.5 36.5t46.5 37.5t22 26v580q-11 6 -31 14.5t-78 22.5t-113 14q-150 0 -220 -85t-70 -292zM403 1143q0 10 21 31l278 247q19 19 39 19q21 0 35 -21l35 -45q12 -14 12 -31q0 -19 -28 -38l-314 -197 q-26 -16 -32 -16q-7 0 -19 12l-18 20q-9 12 -9 19z" />
<glyph unicode="&#xe2;" horiz-adv-x="1064" d="M92 471q0 268 110 383t324 115q90 0 174.5 -20t125.5 -38.5t69 -36.5v-661q0 -57 19 -86t67 -29q10 0 25 2t18 2q18 0 23 -30q1 -6 3 -20l3.5 -24.5t1.5 -13.5q0 -8 -10 -15t-35 -12t-62 -5q-127 0 -166 114q-10 -11 -30 -26t-57 -37t-93 -36.5t-117 -14.5 q-393 0 -393 489zM238 471q0 -191 67 -280t201 -89q52 0 99 15t76.5 36.5t46.5 37.5t22 26v580q-11 6 -31 14.5t-78 22.5t-113 14q-150 0 -220 -85t-70 -292zM238 1157q0 12 22 31l229 213q21 18 43 18q20 0 41 -18l230 -213q22 -19 22 -31q0 -7 -10 -20l-12 -17 q-11 -14 -21 -14q-9 0 -39 18l-213 140l-211 -140q-30 -18 -38 -18q-11 0 -21 14l-12 17q-10 13 -10 20z" />
<glyph unicode="&#xe3;" horiz-adv-x="1064" d="M92 471q0 268 110 383t324 115q90 0 174.5 -20t125.5 -38.5t69 -36.5v-661q0 -57 19 -86t67 -29q10 0 25 2t18 2q18 0 23 -30q1 -6 3 -20l3.5 -24.5t1.5 -13.5q0 -8 -10 -15t-35 -12t-62 -5q-127 0 -166 114q-10 -11 -30 -26t-57 -37t-93 -36.5t-117 -14.5 q-393 0 -393 489zM195 1219q0 22 70.5 53t135.5 31q64 0 148.5 -30t140.5 -30q36 0 77 14.5t58 14.5t27 -17q16 -45 16 -51q0 -22 -68 -52t-132 -30q-69 0 -153 29t-138 29q-31 0 -76 -14.5t-63 -14.5q-19 0 -27 16q-16 48 -16 52zM238 471q0 -191 67 -280t201 -89 q52 0 99 15t76.5 36.5t46.5 37.5t22 26v580q-11 6 -31 14.5t-78 22.5t-113 14q-150 0 -220 -85t-70 -292z" />
<glyph unicode="&#xe4;" horiz-adv-x="1064" d="M92 471q0 268 110 383t324 115q90 0 174.5 -20t125.5 -38.5t69 -36.5v-661q0 -57 19 -86t67 -29q10 0 25 2t18 2q18 0 23 -30q1 -6 3 -20l3.5 -24.5t1.5 -13.5q0 -8 -10 -15t-35 -12t-62 -5q-127 0 -166 114q-10 -11 -30 -26t-57 -37t-93 -36.5t-117 -14.5 q-393 0 -393 489zM238 471q0 -191 67 -280t201 -89q52 0 99 15t76.5 36.5t46.5 37.5t22 26v580q-11 6 -31 14.5t-78 22.5t-113 14q-150 0 -220 -85t-70 -292zM309 1214q0 40 24 63t64 23q33 0 59.5 -25t26.5 -61q0 -35 -25.5 -60.5t-60.5 -25.5q-39 0 -63.5 25t-24.5 61z M582 1214q0 40 24 63t64 23q33 0 59.5 -25t26.5 -61q0 -35 -25.5 -60.5t-60.5 -25.5q-39 0 -63.5 25t-24.5 61z" />
<glyph unicode="&#xe5;" horiz-adv-x="1064" d="M92 471q0 268 110 383t324 115q90 0 174.5 -20t125.5 -38.5t69 -36.5v-661q0 -57 19 -86t67 -29q10 0 25 2t18 2q18 0 23 -30q1 -6 3 -20l3.5 -24.5t1.5 -13.5q0 -8 -10 -15t-35 -12t-62 -5q-127 0 -166 114q-10 -11 -30 -26t-57 -37t-93 -36.5t-117 -14.5 q-393 0 -393 489zM238 471q0 -191 67 -280t201 -89q52 0 99 15t76.5 36.5t46.5 37.5t22 26v580q-11 6 -31 14.5t-78 22.5t-113 14q-150 0 -220 -85t-70 -292zM356 1278q0 78 49 126t127 48q69 0 123 -51t54 -123q0 -70 -53 -122t-124 -52q-76 0 -126 51t-50 123zM438 1278 q0 -39 26.5 -67.5t65.5 -28.5q38 0 67.5 29t29.5 67t-30 68t-67 30q-40 0 -66 -28t-26 -70z" />
<glyph unicode="&#xe6;" horiz-adv-x="1628" d="M92 471q0 268 110 383t324 115q193 0 351 -103q103 103 280 103q194 0 286.5 -114.5t92.5 -346.5q0 -53 -14 -71.5t-54 -18.5h-571q0 -163 72 -239.5t239 -76.5q61 0 120.5 11t94 21.5t35.5 10.5q15 0 29 -33.5t14 -52.5q0 -30 -95 -53.5t-198 -23.5q-150 0 -242 38.5 t-143 114.5q-124 -153 -338 -153q-393 0 -393 489zM238 471q0 -191 67 -280t201 -89q52 0 99 15.5t76.5 38t46 39t22.5 26.5v563q-13 7 -34.5 17.5t-80.5 28.5t-107 18q-150 0 -220 -85t-70 -292zM897 532h498v25q0 133 -58 212t-180 79q-134 0 -197 -83t-63 -233z" />
<glyph unicode="&#xe7;" horiz-adv-x="825" d="M92 475q0 137 28 233t84 153t133.5 82.5t184.5 25.5q79 0 152.5 -23t73.5 -49q0 -11 -18 -47.5t-30 -36.5q-5 0 -60 17.5t-118 17.5q-159 0 -221.5 -85.5t-62.5 -287.5q0 -199 61.5 -286t220.5 -87q56 0 104 10.5t75 20.5t32 10q15 0 29 -27.5t14 -56.5t-78.5 -53 t-163.5 -24l-40 2l-41 -64q30 8 61 8q72 0 112 -38t40 -97q0 -76 -59.5 -119t-168.5 -43q-50 0 -98.5 15.5t-48.5 34.5q0 24 9.5 34.5t20.5 10.5q4 0 21 -5t44.5 -9.5t59.5 -4.5q58 0 89.5 21.5t31.5 58.5q0 66 -86 66q-55 0 -102 -21l-49 62l75 98q-160 27 -235.5 142 t-75.5 341z" />
<glyph unicode="&#xe8;" horiz-adv-x="970" d="M92 475q0 241 103 367.5t305 126.5q194 0 286.5 -114.5t92.5 -346.5q0 -53 -14 -71.5t-54 -18.5h-571q0 -162 71 -239t248 -77q62 0 117 11t87 21.5t38 10.5q15 0 29 -33.5t14 -52.5q0 -30 -95 -53.5t-198 -23.5q-129 0 -217.5 29.5t-142 92.5t-76.5 152.5t-23 218.5z M223 1343q0 15 13 31l34 45q14 21 35 21q20 0 39 -19l279 -247q20 -20 20 -31q0 -8 -8 -19l-17 -20q-12 -12 -18 -12q-9 0 -35 16l-313 197q-29 19 -29 38zM240 532h497v25q0 133 -58 212t-179 79q-134 0 -197 -83t-63 -233z" />
<glyph unicode="&#xe9;" horiz-adv-x="970" d="M92 475q0 241 103 367.5t305 126.5q194 0 286.5 -114.5t92.5 -346.5q0 -53 -14 -71.5t-54 -18.5h-571q0 -162 71 -239t248 -77q62 0 117 11t87 21.5t38 10.5q15 0 29 -33.5t14 -52.5q0 -30 -95 -53.5t-198 -23.5q-129 0 -217.5 29.5t-142 92.5t-76.5 152.5t-23 218.5z M240 532h497v25q0 133 -58 212t-179 79q-134 0 -197 -83t-63 -233zM393 1143q0 10 21 31l278 247q19 19 39 19q21 0 35 -21l35 -45q12 -14 12 -31q0 -19 -29 -38l-313 -197q-26 -16 -33 -16q-6 0 -18 12l-19 20q-8 11 -8 19z" />
<glyph unicode="&#xea;" horiz-adv-x="970" d="M92 475q0 241 103 367.5t305 126.5q194 0 286.5 -114.5t92.5 -346.5q0 -53 -14 -71.5t-54 -18.5h-571q0 -162 71 -239t248 -77q62 0 117 11t87 21.5t38 10.5q15 0 29 -33.5t14 -52.5q0 -30 -95 -53.5t-198 -23.5q-129 0 -217.5 29.5t-142 92.5t-76.5 152.5t-23 218.5z M201 1157q0 12 22 31l230 213q21 18 43 18q20 0 41 -18l229 -213q22 -19 22 -31q0 -7 -10 -20l-12 -17q-10 -14 -21 -14q-8 0 -38 18l-213 140l-211 -140q-30 -18 -39 -18q-10 0 -21 14l-12 17q-10 13 -10 20zM240 532h497v25q0 133 -58 212t-179 79q-134 0 -197 -83 t-63 -233z" />
<glyph unicode="&#xeb;" horiz-adv-x="970" d="M92 475q0 241 103 367.5t305 126.5q194 0 286.5 -114.5t92.5 -346.5q0 -53 -14 -71.5t-54 -18.5h-571q0 -162 71 -239t248 -77q62 0 117 11t87 21.5t38 10.5q15 0 29 -33.5t14 -52.5q0 -30 -95 -53.5t-198 -23.5q-129 0 -217.5 29.5t-142 92.5t-76.5 152.5t-23 218.5z M240 532h497v25q0 133 -58 212t-179 79q-134 0 -197 -83t-63 -233zM270 1214q0 40 24 63t64 23q33 0 59.5 -25t26.5 -61q0 -35 -25.5 -60.5t-60.5 -25.5q-39 0 -63.5 25t-24.5 61zM543 1214q0 40 24 63t64 23q33 0 59.5 -25t26.5 -61q0 -35 -25.5 -60.5t-60.5 -25.5 q-39 0 -63.5 25t-24.5 61z" />
<glyph unicode="&#xec;" horiz-adv-x="397" d="M-31 1343q0 15 13 31l34 45q14 21 35 21q20 0 39 -19l279 -247q20 -20 20 -31q0 -8 -8 -19l-16 -20q-12 -12 -19 -12q-9 0 -35 16l-313 197q-29 19 -29 38zM127 37v874q0 21 8.5 30t30.5 9h65q22 0 31.5 -9t9.5 -30v-874q0 -19 -9 -28t-32 -9h-65q-22 0 -30.5 8.5 t-8.5 28.5z" />
<glyph unicode="&#xed;" horiz-adv-x="397" d="M25 1143q0 11 20 31l279 247q19 19 38 19q21 0 35 -21l35 -45q12 -14 12 -31q0 -19 -28 -38l-314 -197q-26 -16 -32 -16q-7 0 -19 12l-18 20q-8 11 -8 19zM127 37v874q0 21 8.5 30t30.5 9h65q22 0 31.5 -9t9.5 -30v-874q0 -19 -9 -28t-32 -9h-65q-22 0 -30.5 8.5 t-8.5 28.5z" />
<glyph unicode="&#xee;" horiz-adv-x="397" d="M-94 1157q0 12 22 31l230 213q21 18 43 18q20 0 41 -18l229 -213q23 -20 23 -31q0 -5 -11 -20l-12 -17q-11 -14 -20 -14t-39 18l-213 140l-211 -140q-30 -18 -39 -18q-11 0 -21 14l-12 17q-10 13 -10 20zM127 37v874q0 21 8.5 30t30.5 9h65q22 0 31.5 -9t9.5 -30v-874 q0 -19 -9 -28t-32 -9h-65q-22 0 -30.5 8.5t-8.5 28.5z" />
<glyph unicode="&#xef;" horiz-adv-x="397" d="M-25 1214q0 40 24 63t64 23q33 0 60 -25t27 -61q0 -35 -26 -60.5t-61 -25.5q-39 0 -63.5 25t-24.5 61zM127 37v874q0 21 8.5 30t30.5 9h65q22 0 31.5 -9t9.5 -30v-874q0 -19 -9 -28t-32 -9h-65q-22 0 -30.5 8.5t-8.5 28.5zM248 1214q0 40 24 63t64 23q33 0 59.5 -25 t26.5 -61q0 -35 -25.5 -60.5t-60.5 -25.5q-39 0 -63.5 25t-24.5 61z" />
<glyph unicode="&#xf0;" horiz-adv-x="1038" d="M92 463q0 214 100.5 340.5t301.5 126.5q54 0 102 -8t69 -16l21 -9q-66 119 -160 272l-247 -108q-16 -4 -23 -4q-17 3 -29 26l-16 37q-4 8 -4 25q0 18 22 26l230 101q-7 10 -24.5 34.5t-26.5 39.5q-29 45 -29 57q0 31 39 31h78q8 0 14 -1.5t11.5 -7l7.5 -7.5t8.5 -12 t7.5 -11l45 -70l147 64q20 8 29 8q15 0 25 -27l18 -39q6 -15 6 -24q0 -18 -24 -25l-134 -59q289 -452 289 -746q0 -89 -11 -159.5t-39.5 -135.5t-75 -107.5t-121.5 -67.5t-175 -25q-120 0 -204.5 32t-134 96t-71.5 150t-22 203zM238 465q0 -202 67 -282.5t217 -80.5 q148 0 212.5 84.5t64.5 278.5q0 165 -68 289q-9 6 -25 15t-72 24.5t-118 15.5q-145 0 -211.5 -87t-66.5 -257z" />
<glyph unicode="&#xf1;" horiz-adv-x="1030" d="M123 37v813q73 51 177 85t216 34q95 0 168 -19t116.5 -49.5t70.5 -73t37 -84t10 -88.5v-618q0 -37 -39 -37h-66q-39 0 -39 37v581q0 230 -266 230q-117 0 -242 -70v-741q0 -20 -8.5 -28.5t-30.5 -8.5h-65q-22 0 -30.5 8.5t-8.5 28.5zM184 1219q0 22 71 53t136 31 q64 0 148.5 -30t140.5 -30q36 0 77 14.5t58 14.5t27 -17q16 -45 16 -51q0 -22 -68.5 -52t-132.5 -30q-69 0 -152.5 29t-137.5 29q-31 0 -76.5 -14.5t-63.5 -14.5t-26 16q-17 48 -17 52z" />
<glyph unicode="&#xf2;" horiz-adv-x="1036" d="M92 475q0 262 104.5 378t321.5 116t321.5 -116t104.5 -378t-104.5 -377.5t-321.5 -115.5t-321.5 115.5t-104.5 377.5zM225 1343q0 15 13 31l34 45q14 21 35 21q20 0 39 -19l279 -247q20 -20 20 -31q0 -8 -8 -19l-16 -20q-12 -12 -19 -12q-9 0 -35 16l-313 197 q-29 19 -29 38zM238 475q0 -211 65 -292t215 -81q99 0 158 32.5t90 115t31 225.5t-31 225.5t-90 115t-158 32.5q-150 0 -215 -81t-65 -292z" />
<glyph unicode="&#xf3;" horiz-adv-x="1036" d="M92 475q0 262 104.5 378t321.5 116t321.5 -116t104.5 -378t-104.5 -377.5t-321.5 -115.5t-321.5 115.5t-104.5 377.5zM238 475q0 -211 65 -292t215 -81q99 0 158 32.5t90 115t31 225.5t-31 225.5t-90 115t-158 32.5q-150 0 -215 -81t-65 -292zM403 1143q0 10 21 31 l278 247q19 19 39 19q21 0 35 -21l35 -45q12 -14 12 -31q0 -19 -28 -38l-314 -197q-26 -16 -32 -16q-7 0 -19 12l-18 20q-9 12 -9 19z" />
<glyph unicode="&#xf4;" horiz-adv-x="1036" d="M92 475q0 262 104.5 378t321.5 116t321.5 -116t104.5 -378t-104.5 -377.5t-321.5 -115.5t-321.5 115.5t-104.5 377.5zM223 1157q0 11 23 31l229 213q21 18 43 18q20 0 41 -18l229 -213q23 -20 23 -31q0 -7 -10 -20l-13 -17q-11 -14 -20 -14t-39 18l-213 140l-211 -140 q-30 -18 -39 -18q-10 0 -20 14l-13 17q-10 13 -10 20zM238 475q0 -211 65 -292t215 -81q99 0 158 32.5t90 115t31 225.5t-31 225.5t-90 115t-158 32.5q-150 0 -215 -81t-65 -292z" />
<glyph unicode="&#xf5;" horiz-adv-x="1036" d="M92 475q0 262 104.5 378t321.5 116t321.5 -116t104.5 -378t-104.5 -377.5t-321.5 -115.5t-321.5 115.5t-104.5 377.5zM180 1219q0 22 71 53t136 31q64 0 148.5 -30t140.5 -30q36 0 77 14.5t58 14.5t27 -17q16 -45 16 -51q0 -22 -68.5 -52t-132.5 -30q-69 0 -153 29 t-138 29q-30 0 -75 -14.5t-64 -14.5q-18 0 -26 16q-17 48 -17 52zM238 475q0 -211 65 -292t215 -81q99 0 158 32.5t90 115t31 225.5t-31 225.5t-90 115t-158 32.5q-150 0 -215 -81t-65 -292z" />
<glyph unicode="&#xf6;" horiz-adv-x="1036" d="M92 475q0 262 104.5 378t321.5 116t321.5 -116t104.5 -378t-104.5 -377.5t-321.5 -115.5t-321.5 115.5t-104.5 377.5zM238 475q0 -211 65 -292t215 -81q99 0 158 32.5t90 115t31 225.5t-31 225.5t-90 115t-158 32.5q-150 0 -215 -81t-65 -292zM293 1214q0 40 24 63t64 23 q33 0 59.5 -25t26.5 -61q0 -35 -25.5 -60.5t-60.5 -25.5q-39 0 -63.5 25t-24.5 61zM565 1214q0 40 24 63t64 23q33 0 59.5 -25t26.5 -61q0 -35 -25.5 -60.5t-60.5 -25.5q-39 0 -63.5 25t-24.5 61z" />
<glyph unicode="&#xf7;" horiz-adv-x="1009" d="M143 547v45q0 22 7.5 29.5t29.5 7.5h649q22 0 29.5 -7.5t7.5 -29.5v-45q0 -22 -7.5 -29.5t-29.5 -7.5h-649q-22 0 -29.5 7.5t-7.5 29.5zM379 221q0 51 37 87t88 36t87 -36t36 -87q0 -52 -36 -88.5t-87 -36.5t-88 36.5t-37 88.5zM379 920q0 51 37 86.5t88 35.5t87 -35.5 t36 -86.5t-36 -88t-87 -37t-88 37t-37 88z" />
<glyph unicode="&#xf8;" horiz-adv-x="1036" d="M92 475q0 262 104.5 378t321.5 116q80 0 144 -15l18 41q9 20 13.5 29t13.5 16t22 7h64q34 0 34 -29q0 -7 -7.5 -26.5t-20.5 -49t-17 -39.5q162 -110 162 -428q0 -262 -104.5 -377.5t-321.5 -115.5q-80 0 -135 14q-3 -8 -8.5 -20.5t-8 -18t-6.5 -14t-6.5 -12.5t-6 -9 t-6 -7.5t-6.5 -5t-8.5 -3t-9.5 -0.5h-67q-18 0 -25.5 5.5t-7.5 20.5q0 11 8 31l37 80q-170 105 -170 432zM238 475q0 -230 79 -303l293 666q-41 10 -92 10q-85 0 -140.5 -23.5t-85.5 -73.5t-42 -115t-12 -161zM434 111q33 -9 84 -9q148 0 213.5 82t65.5 291t-72 299z" />
<glyph unicode="&#xf9;" horiz-adv-x="1060" d="M113 330v581q0 21 9 30t30 9h65q22 0 30.5 -9t8.5 -30v-549q0 -260 246 -260q88 0 151.5 36.5t94.5 80.5v692q0 21 8.5 30t29.5 9h66q23 0 32 -9t9 -30v-696q0 -115 86 -115q9 0 22.5 1t16.5 1q21 0 24 -28q9 -58 9 -60q0 -8 -9.5 -15t-33.5 -12t-58 -5 q-66 0 -110.5 29.5t-59.5 86.5q-39 -41 -115.5 -78.5t-179.5 -37.5q-185 0 -278.5 88.5t-93.5 259.5zM164 1343q0 17 12 31l35 45q14 21 35 21q20 0 39 -19l278 -247q21 -21 21 -31q0 -7 -9 -19l-16 -20q-12 -12 -18 -12q-9 0 -35 16l-313 197q-29 19 -29 38z" />
<glyph unicode="&#xfa;" horiz-adv-x="1060" d="M113 330v581q0 21 9 30t30 9h65q22 0 30.5 -9t8.5 -30v-549q0 -260 246 -260q88 0 151.5 36.5t94.5 80.5v692q0 21 8.5 30t29.5 9h66q23 0 32 -9t9 -30v-696q0 -115 86 -115q9 0 22.5 1t16.5 1q21 0 24 -28q9 -58 9 -60q0 -8 -9.5 -15t-33.5 -12t-58 -5 q-66 0 -110.5 29.5t-59.5 86.5q-39 -41 -115.5 -78.5t-179.5 -37.5q-185 0 -278.5 88.5t-93.5 259.5zM410 1143q0 11 20 31l279 247q19 19 39 19t34 -21l35 -45q12 -14 12 -31q0 -19 -28 -38l-314 -197q-26 -16 -32 -16q-7 0 -19 12l-18 20q-8 11 -8 19z" />
<glyph unicode="&#xfb;" horiz-adv-x="1060" d="M113 330v581q0 21 9 30t30 9h65q22 0 30.5 -9t8.5 -30v-549q0 -260 246 -260q88 0 151.5 36.5t94.5 80.5v692q0 21 8.5 30t29.5 9h66q23 0 32 -9t9 -30v-696q0 -115 86 -115q9 0 22.5 1t16.5 1q21 0 24 -28q9 -58 9 -60q0 -8 -9.5 -15t-33.5 -12t-58 -5 q-66 0 -110.5 29.5t-59.5 86.5q-39 -41 -115.5 -78.5t-179.5 -37.5q-185 0 -278.5 88.5t-93.5 259.5zM223 1157q0 11 23 31l229 213q21 18 43 18q20 0 41 -18l229 -213q23 -20 23 -31q0 -7 -10 -20l-13 -17q-11 -14 -20 -14t-39 18l-213 140l-211 -140q-30 -18 -39 -18 q-10 0 -20 14l-13 17q-10 13 -10 20z" />
<glyph unicode="&#xfc;" horiz-adv-x="1060" d="M113 330v581q0 21 9 30t30 9h65q22 0 30.5 -9t8.5 -30v-549q0 -260 246 -260q88 0 151.5 36.5t94.5 80.5v692q0 21 8.5 30t29.5 9h66q23 0 32 -9t9 -30v-696q0 -115 86 -115q9 0 22.5 1t16.5 1q21 0 24 -28q9 -58 9 -60q0 -8 -9.5 -15t-33.5 -12t-58 -5 q-66 0 -110.5 29.5t-59.5 86.5q-39 -41 -115.5 -78.5t-179.5 -37.5q-185 0 -278.5 88.5t-93.5 259.5zM293 1214q0 40 24 63t64 23q33 0 59.5 -25t26.5 -61q0 -35 -25.5 -60.5t-60.5 -25.5q-39 0 -63.5 25t-24.5 61zM565 1214q0 40 24 63t64 23q33 0 59.5 -25t26.5 -61 q0 -35 -25.5 -60.5t-60.5 -25.5q-39 0 -63.5 25t-24.5 61z" />
<glyph unicode="&#xfd;" horiz-adv-x="847" d="M10 926q0 24 31 24h82q20 0 28.5 -7t14.5 -28l262 -727l264 730q6 20 12.5 26t24.5 6h78q31 0 31 -24q0 -9 -4 -21l-474 -1249q-8 -21 -14 -27t-24 -6h-80q-29 0 -29 21q0 6 4 18l137 356l-340 889q-4 12 -4 19zM336 1143q0 11 20 31l279 247q19 19 39 19q21 0 35 -21 l34 -45q13 -16 13 -31q0 -19 -29 -38l-313 -197q-26 -16 -33 -16t-19 12l-18 20q-8 11 -8 19z" />
<glyph unicode="&#xfe;" d="M123 -389v1775q0 19 7 28t28 16q83 22 90 22q12 0 15 -6t3 -27v-493q110 43 221 43q104 0 181 -24t137 -79t90.5 -153t30.5 -238q0 -132 -30 -229t-86.5 -154t-129.5 -83.5t-166 -26.5q-146 0 -248 77v-448q0 -21 -8 -29t-31 -8h-65q-23 0 -31 8t-8 29zM266 199 q0 -11 28.5 -33t85 -43t116.5 -21q141 0 211.5 84t70.5 289q0 91 -14 157.5t-38.5 107.5t-62.5 65.5t-79.5 33.5t-96.5 9q-54 0 -109 -17t-84 -34l-28 -17v-581z" />
<glyph unicode="&#xff;" horiz-adv-x="847" d="M10 926q0 24 31 24h82q20 0 28.5 -7t14.5 -28l262 -727l264 730q6 20 12.5 26t24.5 6h78q31 0 31 -24q0 -9 -4 -21l-474 -1249q-8 -21 -14 -27t-24 -6h-80q-29 0 -29 21q0 6 4 18l137 356l-340 889q-4 12 -4 19zM201 1214q0 40 24 63t64 23q33 0 59.5 -25t26.5 -61 q0 -35 -25.5 -60.5t-60.5 -25.5q-39 0 -63.5 25t-24.5 61zM473 1214q0 40 24 63t64 23q33 0 59.5 -25t26.5 -61q0 -35 -25.5 -60.5t-60.5 -25.5q-39 0 -63.5 25t-24.5 61z" />
<glyph unicode="&#x152;" horiz-adv-x="1806" d="M102 717q0 402 129 568.5t445 166.5q69 0 163.5 -9t112.5 -9h713q20 0 28.5 -8.5t8.5 -30.5v-47q0 -21 -8 -30t-29 -9h-606v-512h567q21 0 29 -9t8 -30v-47q0 -39 -37 -39h-567v-547h608q22 0 29.5 -9t7.5 -30v-47q0 -39 -37 -39h-715q-44 0 -128 -9t-148 -9 q-316 0 -445 166.5t-129 568.5zM256 717q0 -146 15 -249.5t45 -174t81.5 -111.5t118 -58.5t160.5 -17.5q59 0 118 5t88 11l29 5v1178q-110 20 -235 20q-89 0 -155 -15.5t-112.5 -50.5t-76 -81.5t-46.5 -118.5t-23.5 -152t-6.5 -190z" />
<glyph unicode="&#x153;" horiz-adv-x="1677" d="M92 475q0 262 104.5 378t321.5 116q130 0 217 -41.5t137 -130.5q102 172 332 172q194 0 287.5 -114.5t93.5 -346.5q0 -52 -14.5 -71t-52.5 -19h-572q0 -162 70.5 -239t247.5 -77q63 0 117.5 11t86 21.5t37.5 10.5q15 0 30 -33.5t15 -52.5q0 -30 -96 -53.5t-197 -23.5 q-149 0 -243 40.5t-144 124.5q-50 -86 -136.5 -125.5t-215.5 -39.5q-217 0 -321.5 115.5t-104.5 377.5zM238 475q0 -211 65 -292t215 -81q99 0 158 32.5t90 115t31 225.5t-31 225.5t-90 115t-158 32.5q-150 0 -215 -81t-65 -292zM946 532h496v25q0 133 -57.5 212t-178.5 79 q-134 0 -197 -83t-63 -233z" />
<glyph unicode="&#x178;" horiz-adv-x="1028" d="M20 1411q0 10 8.5 16.5t20.5 6.5h98q14 0 21 -7.5t16 -25.5l330 -649l332 653q18 29 37 29h96q29 0 29 -23q0 -8 -7 -22l-413 -781v-571q0 -20 -8.5 -28.5t-30.5 -8.5h-70q-39 0 -39 37v571l-413 781q-7 14 -7 22zM291 1698q0 40 24 63t64 23q33 0 59.5 -25t26.5 -61 q0 -35 -25.5 -60.5t-60.5 -25.5q-39 0 -63.5 25t-24.5 61zM563 1698q0 40 24 63t64 23q33 0 59.5 -25t26.5 -61q0 -35 -25.5 -60.5t-60.5 -25.5q-39 0 -63.5 25t-24.5 61z" />
<glyph unicode="&#x2c6;" horiz-adv-x="792" d="M102 1157q0 11 23 31l229 213q21 18 43 18q20 0 41 -18l230 -213q22 -19 22 -31q0 -7 -10 -20l-12 -17q-10 -14 -21 -14q-9 0 -39 18l-213 140l-211 -140q-30 -18 -39 -18t-20 14l-12 17q-11 15 -11 20z" />
<glyph unicode="&#x2dc;" horiz-adv-x="878" d="M102 1219q0 22 71 53t136 31q64 0 148.5 -30t140.5 -30q36 0 77 14.5t58 14.5t27 -17q16 -45 16 -51q0 -22 -68.5 -52t-132.5 -30q-69 0 -152.5 29t-137.5 29q-30 0 -75.5 -14.5t-64.5 -14.5q-18 0 -26 16q-17 48 -17 52z" />
<glyph unicode="&#x2000;" horiz-adv-x="967" />
<glyph unicode="&#x2001;" horiz-adv-x="1935" />
<glyph unicode="&#x2002;" horiz-adv-x="967" />
<glyph unicode="&#x2003;" horiz-adv-x="1935" />
<glyph unicode="&#x2004;" horiz-adv-x="645" />
<glyph unicode="&#x2005;" horiz-adv-x="483" />
<glyph unicode="&#x2006;" horiz-adv-x="322" />
<glyph unicode="&#x2007;" horiz-adv-x="322" />
<glyph unicode="&#x2008;" horiz-adv-x="241" />
<glyph unicode="&#x2009;" horiz-adv-x="387" />
<glyph unicode="&#x200a;" horiz-adv-x="107" />
<glyph unicode="&#x2010;" horiz-adv-x="917" d="M143 547v45q0 22 7.5 29.5t29.5 7.5h557q22 0 29.5 -7.5t7.5 -29.5v-45q0 -22 -7.5 -29.5t-29.5 -7.5h-557q-22 0 -29.5 7.5t-7.5 29.5z" />
<glyph unicode="&#x2011;" horiz-adv-x="917" d="M143 547v45q0 22 7.5 29.5t29.5 7.5h557q22 0 29.5 -7.5t7.5 -29.5v-45q0 -22 -7.5 -29.5t-29.5 -7.5h-557q-22 0 -29.5 7.5t-7.5 29.5z" />
<glyph unicode="&#x2012;" horiz-adv-x="917" d="M143 547v45q0 22 7.5 29.5t29.5 7.5h557q22 0 29.5 -7.5t7.5 -29.5v-45q0 -22 -7.5 -29.5t-29.5 -7.5h-557q-22 0 -29.5 7.5t-7.5 29.5z" />
<glyph unicode="&#x2013;" horiz-adv-x="1105" d="M143 547v45q0 22 7.5 29.5t29.5 7.5h746q22 0 29.5 -7.5t7.5 -29.5v-45q0 -22 -7.5 -29.5t-29.5 -7.5h-746q-22 0 -29.5 7.5t-7.5 29.5z" />
<glyph unicode="&#x2014;" horiz-adv-x="1495" d="M143 547v45q0 22 7.5 29.5t29.5 7.5h1135q22 0 29.5 -7.5t7.5 -29.5v-45q0 -22 -7.5 -29.5t-29.5 -7.5h-1135q-22 0 -29.5 7.5t-7.5 29.5z" />
<glyph unicode="&#x2018;" horiz-adv-x="526" d="M123 1079q0 60 22 120t53 104t65 78.5t59.5 52.5t33.5 18q12 0 27 -13t20 -26q-38 -26 -73 -86t-35 -123q0 -5 13 -16.5t28 -25.5t28 -39.5t13 -55.5q0 -51 -37 -86t-90 -35q-54 0 -90.5 37.5t-36.5 95.5z" />
<glyph unicode="&#x2019;" horiz-adv-x="526" d="M123 985q38 26 74 87t36 124q0 5 -12.5 16t-28 24.5t-28 39t-12.5 55.5q0 51 36.5 86t87.5 35q54 0 90.5 -37.5t36.5 -95.5q0 -60 -22 -120t-53 -104t-65 -78.5t-59.5 -52.5t-33.5 -18q-12 0 -27 13t-20 26z" />
<glyph unicode="&#x201a;" horiz-adv-x="493" d="M61 -236q55 34 96.5 103.5t41.5 118.5q0 5 -12.5 15.5t-27.5 23.5t-27.5 38.5t-12.5 55.5q0 53 37.5 90t89.5 37t88.5 -37t36.5 -90q0 -103 -52.5 -199.5t-134.5 -159.5q-54 -43 -73 -43q-15 0 -29.5 16t-20.5 31z" />
<glyph unicode="&#x201c;" horiz-adv-x="868" d="M123 1079q0 60 22 120t53 104t65 78.5t59.5 52.5t33.5 18q12 0 27 -13t20 -26q-38 -26 -73 -86t-35 -123q0 -5 13 -16.5t28 -25.5t28 -39.5t13 -55.5q0 -51 -37 -86t-90 -35q-54 0 -90.5 37.5t-36.5 95.5zM463 1079q0 74 32.5 147t75 120t79 76.5t48.5 29.5t27 -13 t20 -26q-38 -26 -74 -86t-36 -123q0 -5 13 -16.5t28 -25.5t28 -39.5t13 -55.5q0 -51 -37 -86t-90 -35t-90 37.5t-37 95.5z" />
<glyph unicode="&#x201d;" horiz-adv-x="868" d="M123 985q38 26 74 87t36 124q0 5 -12.5 16t-28 24.5t-28 39t-12.5 55.5q0 51 36.5 86t87.5 35q54 0 90.5 -37.5t36.5 -95.5q0 -60 -22 -120t-53 -104t-65 -78.5t-59.5 -52.5t-33.5 -18q-12 0 -27 13t-20 26zM463 985q38 26 74 87t36 124q0 5 -12.5 16t-28 24.5t-28 39 t-12.5 55.5q0 51 36.5 86t89.5 35q54 0 90.5 -37.5t36.5 -95.5q0 -74 -32.5 -147t-75 -120t-79 -76.5t-48.5 -29.5t-27 13t-20 26z" />
<glyph unicode="&#x201e;" horiz-adv-x="851" d="M61 -236q55 34 96.5 103.5t41.5 118.5q0 5 -12.5 15.5t-27.5 23.5t-27.5 38.5t-12.5 55.5q0 53 37.5 90t89.5 37t88.5 -37t36.5 -90q0 -103 -52.5 -199.5t-134.5 -159.5q-54 -43 -73 -43q-15 0 -29.5 16t-20.5 31zM418 -236q55 34 96 103t41 119q0 5 -12.5 15.5 t-27.5 23.5t-27.5 38.5t-12.5 55.5q0 53 37.5 90t89.5 37t89.5 -37t37.5 -90q0 -103 -53 -199.5t-135 -159.5q-54 -43 -74 -43q-15 0 -29 15.5t-20 31.5z" />
<glyph unicode="&#x2022;" horiz-adv-x="727" d="M164 600q0 82 59.5 140.5t141.5 58.5t140 -58.5t58 -140.5t-58 -139.5t-140 -57.5t-141.5 58t-59.5 139z" />
<glyph unicode="&#x2026;" horiz-adv-x="1398" d="M123 106q0 52 36.5 88.5t88.5 36.5t88.5 -36.5t36.5 -88.5t-36 -88t-89 -36t-89 36t-36 88zM565 106q0 52 36 88.5t87 36.5q52 0 88.5 -36.5t36.5 -88.5t-36 -88t-89 -36q-51 0 -87 36t-36 88zM1026 106q0 52 36 88.5t89 36.5q51 0 88 -36.5t37 -88.5t-37 -88t-88 -36 q-53 0 -89 36t-36 88z" />
<glyph unicode="&#x202f;" horiz-adv-x="387" />
<glyph unicode="&#x2039;" horiz-adv-x="471" d="M61 508q0 13 11 27l196 278q17 25 27 32t27 7l49 -6q18 -3 18 -19q0 -8 -12 -32l-170 -287l170 -289q12 -24 12 -33q0 -15 -18 -18l-49 -6q-17 0 -27 7t-27 32l-196 278q-11 14 -11 29z" />
<glyph unicode="&#x203a;" horiz-adv-x="471" d="M82 186q0 12 14 33l168 289l-168 287q-14 28 -14 32q0 16 18 19l50 6q17 0 26 -7t27 -32l196 -278q11 -14 11 -27q0 -15 -11 -29l-196 -278q-18 -25 -27 -32t-26 -7l-50 6q-18 3 -18 18z" />
<glyph unicode="&#x205f;" horiz-adv-x="483" />
<glyph unicode="&#x20ac;" horiz-adv-x="1249" d="M123 547v47q0 22 7.5 29.5t29.5 7.5h129q-2 27 -2 86q0 71 2 104h-129q-22 0 -29.5 7.5t-7.5 29.5v47q0 20 7.5 27.5t29.5 7.5h137q31 276 156 394t381 118q83 0 148.5 -14t91.5 -28t26 -21q0 -18 -23 -60q-25 -37 -39 -37q-5 0 -29 8t-70 16.5t-105 8.5q-186 0 -273 -87 t-110 -298h436q22 0 29.5 -7.5t7.5 -27.5v-47q0 -22 -7.5 -29.5t-29.5 -7.5h-445q-2 -33 -2 -104q0 -59 2 -86h445q22 0 29.5 -7.5t7.5 -29.5v-47q0 -20 -7.5 -27.5t-29.5 -7.5h-438q22 -221 109 -312t276 -91q64 0 119 12.5t86 24.5t36 12q19 0 29 -27q22 -55 22 -68 t-33.5 -31t-104.5 -34t-154 -16q-260 0 -385.5 122.5t-151.5 407.5h-137q-22 0 -29.5 7.5t-7.5 27.5z" />
<glyph unicode="&#x2122;" horiz-adv-x="1404" d="M102 1366v39q0 16 7 22.5t28 6.5h432q22 0 29.5 -6t7.5 -23v-41q0 -18 -6.5 -23.5t-30.5 -5.5h-159v-565q0 -29 -27 -29h-57q-27 0 -27 29v565h-162q-22 0 -28.5 5.5t-6.5 25.5zM702 770v623q0 22 9 31.5t30 9.5h66q23 0 37 -27l131 -285l131 285q18 27 39 27h67 q39 0 39 -41v-623q0 -29 -26 -29h-58q-26 0 -26 29v479l-115 -245q-12 -23 -35 -23h-35q-23 0 -32 23l-111 245v-479q0 -29 -29 -29h-55q-16 0 -21.5 7t-5.5 22z" />
<glyph unicode="&#x25fc;" horiz-adv-x="952" d="M0 0v952h952v-952h-952z" />
</font>
</defs>
</svg>
